<svg width="30" height="31" viewBox="0 0 30 31" fill="none" xmlns="http://www.w3.org/2000/svg">
<g id="briefing">
<g id="Group">
<path id="Vector" fill-rule="evenodd" clip-rule="evenodd" d="M10 25.8449C10 25.0081 9.6675 24.2056 9.07625 23.6137C8.48438 23.0224 7.68187 22.6899 6.845 22.6899C6.4525 22.6899 6.0475 22.6899 5.655 22.6899C4.81813 22.6899 4.01563 23.0224 3.42375 23.6137C2.8325 24.2056 2.5 25.0081 2.5 25.8449C2.5 26.0612 2.5 26.2637 2.5 26.4399C2.5 27.1306 3.05937 27.6899 3.75 27.6899H8.75C9.44063 27.6899 10 27.1306 10 26.4399C10 26.2637 10 26.0612 10 25.8449ZM8.75 26.4399H3.75V25.8449C3.75 25.3393 3.95063 24.8549 4.30813 24.4981C4.665 24.1406 5.14938 23.9399 5.655 23.9399H6.845C7.35063 23.9399 7.835 24.1406 8.19188 24.4981C8.54938 24.8549 8.75 25.3393 8.75 25.8449V26.4399ZM18.75 26.4399V25.8018C18.75 24.0831 17.3569 22.6899 15.6381 22.6899H14.3619C12.6431 22.6899 11.25 24.0831 11.25 25.8018C11.25 26.0343 11.25 26.2524 11.25 26.4399C11.25 27.1306 11.8094 27.6899 12.5 27.6899H17.5C18.1906 27.6899 18.75 27.1306 18.75 26.4399ZM17.5 26.4399H12.5V25.8018C12.5 24.7737 13.3337 23.9399 14.3619 23.9399H15.6381C16.6663 23.9399 17.5 24.7737 17.5 25.8018V26.4399ZM18.75 15.1899V14.5518C18.75 12.8331 17.3569 11.4399 15.6381 11.4399H14.3619C12.6431 11.4399 11.25 12.8331 11.25 14.5518C11.25 14.7843 11.25 15.0024 11.25 15.1899C11.25 15.8806 11.8094 16.4399 12.5 16.4399H17.5C18.1906 16.4399 18.75 15.8806 18.75 15.1899ZM17.5 15.1899H12.5V14.5518C12.5 13.5237 13.3337 12.6899 14.3619 12.6899H15.6381C16.6663 12.6899 17.5 13.5237 17.5 14.5518V15.1899ZM27.5 25.8037C27.5 24.9781 27.1719 24.1862 26.5881 23.6018C26.0037 23.0181 25.2119 22.6899 24.3863 22.6899C23.9675 22.6899 23.5325 22.6899 23.1137 22.6899C22.2881 22.6899 21.4963 23.0181 20.9119 23.6018C20.3281 24.1862 20 24.9781 20 25.8037C20 26.0356 20 26.2531 20 26.4399C20 27.1306 20.5594 27.6899 21.25 27.6899H26.25C26.9406 27.6899 27.5 27.1306 27.5 26.4399C27.5 26.2531 27.5 26.0356 27.5 25.8037ZM26.25 26.4399H21.25V25.8037C21.25 25.3093 21.4463 24.8356 21.7956 24.4856C22.1456 24.1362 22.6194 23.9399 23.1137 23.9399H24.3863C24.8806 23.9399 25.3544 24.1362 25.7044 24.4856C26.0537 24.8356 26.25 25.3093 26.25 25.8037V26.4399ZM6.25 17.6899C4.87 17.6899 3.75 18.8099 3.75 20.1899C3.75 21.5699 4.87 22.6899 6.25 22.6899C7.63 22.6899 8.75 21.5699 8.75 20.1899C8.75 18.8099 7.63 17.6899 6.25 17.6899ZM6.25 18.9399C6.94 18.9399 7.5 19.4999 7.5 20.1899C7.5 20.8799 6.94 21.4399 6.25 21.4399C5.56 21.4399 5 20.8799 5 20.1899C5 19.4999 5.56 18.9399 6.25 18.9399ZM15 17.6899C13.62 17.6899 12.5 18.8099 12.5 20.1899C12.5 21.5699 13.62 22.6899 15 22.6899C16.38 22.6899 17.5 21.5699 17.5 20.1899C17.5 18.8099 16.38 17.6899 15 17.6899ZM15 18.9399C15.69 18.9399 16.25 19.4999 16.25 20.1899C16.25 20.8799 15.69 21.4399 15 21.4399C14.31 21.4399 13.75 20.8799 13.75 20.1899C13.75 19.4999 14.31 18.9399 15 18.9399ZM15 6.43994C13.62 6.43994 12.5 7.55994 12.5 8.93994C12.5 10.3199 13.62 11.4399 15 11.4399C16.38 11.4399 17.5 10.3199 17.5 8.93994C17.5 7.55994 16.38 6.43994 15 6.43994ZM15 7.68994C15.69 7.68994 16.25 8.24994 16.25 8.93994C16.25 9.62994 15.69 10.1899 15 10.1899C14.31 10.1899 13.75 9.62994 13.75 8.93994C13.75 8.24994 14.31 7.68994 15 7.68994Z" fill="#FFBD0F"/>
<path id="Vector_2" fill-rule="evenodd" clip-rule="evenodd" d="M23.75 17.6899C22.37 17.6899 21.25 18.8099 21.25 20.1899C21.25 21.5699 22.37 22.6899 23.75 22.6899C25.13 22.6899 26.25 21.5699 26.25 20.1899C26.25 18.8099 25.13 17.6899 23.75 17.6899ZM23.75 18.9399C24.44 18.9399 25 19.4999 25 20.1899C25 20.8799 24.44 21.4399 23.75 21.4399C23.06 21.4399 22.5 20.8799 22.5 20.1899C22.5 19.4999 23.06 18.9399 23.75 18.9399ZM5.625 3.93994H24.375V10.8149H20.0169C19.6719 10.8149 19.3919 11.0949 19.3919 11.4399C19.3919 11.7849 19.6719 12.0649 20.0169 12.0649H24.375V12.6899C24.375 12.8556 24.3094 13.0149 24.1919 13.1318C24.075 13.2493 23.9156 13.3149 23.75 13.3149H20.6344C20.2894 13.3149 20.0094 13.5949 20.0094 13.9399C20.0094 14.2849 20.2894 14.5649 20.6344 14.5649H23.75C24.2475 14.5649 24.7244 14.3674 25.0756 14.0156C25.4275 13.6643 25.625 13.1874 25.625 12.6899V3.93994H26.875C27.22 3.93994 27.5 3.65994 27.5 3.31494C27.5 2.96994 27.22 2.68994 26.875 2.68994H3.125C2.78 2.68994 2.5 2.96994 2.5 3.31494C2.5 3.65994 2.78 3.93994 3.125 3.93994H4.375V12.6899C4.375 13.1874 4.5725 13.6643 4.92438 14.0156C5.27562 14.3674 5.7525 14.5649 6.25 14.5649C7.02125 14.5649 8.10312 14.5649 9.36125 14.5649C9.70625 14.5649 9.98625 14.2849 9.98625 13.9399C9.98625 13.5949 9.70625 13.3149 9.36125 13.3149C8.10312 13.3149 7.02125 13.3149 6.25 13.3149C6.08437 13.3149 5.925 13.2493 5.80813 13.1318C5.69063 13.0149 5.625 12.8556 5.625 12.6899V12.0649H10.6131C10.9581 12.0649 11.2381 11.7849 11.2381 11.4399C11.2381 11.0949 10.9581 10.8149 10.6131 10.8149H5.625V3.93994Z" fill="#FFBD0F"/>
</g>
</g>
</svg>
