<svg width="16" height="16" viewBox="0 0 16 16" fill="none" xmlns="http://www.w3.org/2000/svg">
<g id="Call">
<path id="Vector" d="M7.97974 6.75467C7.97974 6.90401 8.09974 7.02134 8.2464 7.02134C8.5504 7.02134 8.79574 7.26934 8.79574 7.57067C8.79574 7.71734 8.91574 7.83734 9.0624 7.83734C9.20907 7.83734 9.32907 7.71734 9.32907 7.57067C9.32907 6.97334 8.84374 6.48801 8.2464 6.48801C8.09974 6.48801 7.97974 6.60801 7.97974 6.75467ZM12.3211 7.83734C12.4704 7.83734 12.5877 7.71734 12.5877 7.57067C12.5877 5.17601 10.6411 3.22934 8.2464 3.22934C8.09974 3.22934 7.97974 3.34934 7.97974 3.49601C7.97974 3.64267 8.09974 3.76267 8.2464 3.76267C10.3477 3.76267 12.0544 5.47201 12.0544 7.57067C12.0544 7.71734 12.1744 7.83734 12.3211 7.83734Z" fill="#414141"/>
<path id="Vector_2" d="M10.425 7.57067C10.425 7.71734 10.545 7.83734 10.6917 7.83734C10.8384 7.83734 10.9584 7.71734 10.9584 7.57067C10.9584 6.07467 9.74236 4.85867 8.24636 4.85867C8.09969 4.85867 7.97969 4.97867 7.97969 5.12534C7.97969 5.27467 8.09969 5.39201 8.24636 5.39201C9.44902 5.39201 10.425 6.37067 10.425 7.57067ZM8.24636 1.60001C8.09969 1.60001 7.97969 1.72001 7.97969 1.86667C7.97969 2.01334 8.09969 2.13334 8.24636 2.13334C11.2464 2.13334 13.6864 4.57334 13.6864 7.57067C13.6864 7.71734 13.8037 7.83734 13.953 7.83734C14.0997 7.83734 14.2197 7.71734 14.2197 7.57067C14.2197 4.27734 11.5397 1.60001 8.24636 1.60001ZM10.8517 10.3813L10.5024 10.5707C9.91302 10.8933 9.16636 10.784 8.68902 10.3067L5.87302 7.49067C5.39569 7.01334 5.28636 6.26667 5.60902 5.67467L5.79836 5.32801C6.01169 4.93334 6.08902 4.49067 6.02502 4.04801C5.96457 3.60623 5.76026 3.19668 5.44369 2.88267C5.05436 2.49334 4.53702 2.28001 3.98502 2.28001C3.43302 2.28001 2.91302 2.49334 2.52369 2.88267L2.38769 3.02134C1.66769 3.74134 1.58502 4.98134 2.15302 6.51734C2.68902 7.98401 3.76902 9.57334 5.18769 10.992C7.35036 13.1547 9.75836 14.4 11.4864 14.4C12.169 14.4 12.7477 14.2053 13.1584 13.7947L13.297 13.656C13.489 13.4642 13.6414 13.2364 13.7452 12.9856C13.8491 12.7349 13.9025 12.4661 13.9024 12.1947C13.8986 11.6481 13.6814 11.1246 13.297 10.736C12.6544 10.0933 11.649 9.94934 10.8517 10.3813Z" fill="#414141"/>
</g>
</svg>
