<svg width="14" height="15" viewBox="0 0 14 15" fill="none" xmlns="http://www.w3.org/2000/svg">
<g clip-path="url(#clip0_445_436)">
<g clip-path="url(#clip1_445_436)">
<mask id="path-1-inside-1_445_436" fill="white">
<path d="M12.3199 3.72H1.6799C1.5259 3.72 1.3999 3.846 1.3999 4V11C1.3999 11.154 1.5259 11.28 1.6799 11.28H12.3199C12.4739 11.28 12.5999 11.154 12.5999 11V4C12.5999 3.846 12.4739 3.72 12.3199 3.72ZM11.6479 4.28L6.9999 8.928L2.3519 4.28H11.6479ZM1.9599 4.672L4.7879 7.5L1.9599 10.328V4.672ZM2.3659 10.72L5.1799 7.906L6.8039 9.53C6.9159 9.642 7.0839 9.642 7.1959 9.53L8.8199 7.906L11.6339 10.72H2.3659ZM12.0399 10.328L9.2119 7.5L12.0399 4.672V10.328Z"/>
</mask>
<path d="M12.3199 3.72H1.6799C1.5259 3.72 1.3999 3.846 1.3999 4V11C1.3999 11.154 1.5259 11.28 1.6799 11.28H12.3199C12.4739 11.28 12.5999 11.154 12.5999 11V4C12.5999 3.846 12.4739 3.72 12.3199 3.72ZM11.6479 4.28L6.9999 8.928L2.3519 4.28H11.6479ZM1.9599 4.672L4.7879 7.5L1.9599 10.328V4.672ZM2.3659 10.72L5.1799 7.906L6.8039 9.53C6.9159 9.642 7.0839 9.642 7.1959 9.53L8.8199 7.906L11.6339 10.72H2.3659ZM12.0399 10.328L9.2119 7.5L12.0399 4.672V10.328Z" fill="#CECECE"/>
<path d="M11.6479 4.28L12.355 4.98711L14.0621 3.28H11.6479V4.28ZM6.9999 8.928L6.2928 9.63511L6.9999 10.3422L7.70701 9.63511L6.9999 8.928ZM2.3519 4.28V3.28H-0.0623113L1.6448 4.98711L2.3519 4.28ZM1.9599 4.672L2.66701 3.96489L0.959902 2.25779V4.672H1.9599ZM4.7879 7.5L5.49501 8.20711L6.20212 7.5L5.49501 6.79289L4.7879 7.5ZM1.9599 10.328H0.959902V12.7422L2.66701 11.0351L1.9599 10.328ZM2.3659 10.72L1.6588 10.0129L-0.0483115 11.72H2.3659V10.72ZM5.1799 7.906L5.88701 7.19889L5.1799 6.49179L4.4728 7.19889L5.1799 7.906ZM8.8199 7.906L9.52701 7.19889L8.8199 6.49179L8.1128 7.19889L8.8199 7.906ZM11.6339 10.72V11.72H14.0481L12.341 10.0129L11.6339 10.72ZM12.0399 10.328L11.3328 11.0351L13.0399 12.7422V10.328H12.0399ZM9.2119 7.5L8.5048 6.79289L7.79769 7.5L8.5048 8.20711L9.2119 7.5ZM12.0399 4.672H13.0399V2.25779L11.3328 3.96489L12.0399 4.672ZM12.3199 2.72H1.6799V4.72H12.3199V2.72ZM1.6799 2.72C0.973618 2.72 0.399902 3.29372 0.399902 4H2.3999C2.3999 4.39829 2.07819 4.72 1.6799 4.72V2.72ZM0.399902 4V11H2.3999V4H0.399902ZM0.399902 11C0.399902 11.7063 0.973618 12.28 1.6799 12.28V10.28C2.07819 10.28 2.3999 10.6017 2.3999 11H0.399902ZM1.6799 12.28H12.3199V10.28H1.6799V12.28ZM12.3199 12.28C13.0262 12.28 13.5999 11.7063 13.5999 11H11.5999C11.5999 10.6017 11.9216 10.28 12.3199 10.28V12.28ZM13.5999 11V4H11.5999V11H13.5999ZM13.5999 4C13.5999 3.29372 13.0262 2.72 12.3199 2.72V4.72C11.9216 4.72 11.5999 4.39829 11.5999 4H13.5999ZM10.9408 3.57289L6.2928 8.22089L7.70701 9.63511L12.355 4.98711L10.9408 3.57289ZM7.70701 8.22089L3.05901 3.57289L1.6448 4.98711L6.2928 9.63511L7.70701 8.22089ZM2.3519 5.28H11.6479V3.28H2.3519V5.28ZM1.2528 5.37911L4.0808 8.20711L5.49501 6.79289L2.66701 3.96489L1.2528 5.37911ZM4.0808 6.79289L1.2528 9.62089L2.66701 11.0351L5.49501 8.20711L4.0808 6.79289ZM2.9599 10.328V4.672H0.959902V10.328H2.9599ZM3.07301 11.4271L5.88701 8.61311L4.4728 7.19889L1.6588 10.0129L3.07301 11.4271ZM4.4728 8.61311L6.0968 10.2371L7.51101 8.82289L5.88701 7.19889L4.4728 8.61311ZM6.0968 10.2371C6.59932 10.7396 7.40049 10.7396 7.90301 10.2371L6.4888 8.82289C6.61435 8.69734 6.79634 8.614 6.9999 8.614C7.20346 8.614 7.38546 8.69734 7.51101 8.82289L6.0968 10.2371ZM7.90301 10.2371L9.52701 8.61311L8.1128 7.19889L6.4888 8.82289L7.90301 10.2371ZM8.1128 8.61311L10.9268 11.4271L12.341 10.0129L9.52701 7.19889L8.1128 8.61311ZM11.6339 9.72H2.3659V11.72H11.6339V9.72ZM12.747 9.62089L9.91901 6.79289L8.5048 8.20711L11.3328 11.0351L12.747 9.62089ZM9.91901 8.20711L12.747 5.37911L11.3328 3.96489L8.5048 6.79289L9.91901 8.20711ZM11.0399 4.672V10.328H13.0399V4.672H11.0399Z" fill="#CECECE" mask="url(#path-1-inside-1_445_436)"/>
<path d="M112.56 -70.9V164.86H-137.2V-70.9H112.56ZM113.68 -72.02H-138.32V165.98H113.68V-72.02Z" fill="#CECECE"/>
</g>
</g>
<defs>
<clipPath id="clip0_445_436">
<rect width="14" height="14" fill="white" transform="translate(0 0.5)"/>
</clipPath>
<clipPath id="clip1_445_436">
<rect width="14" height="14" fill="white" transform="translate(0 0.5)"/>
</clipPath>
</defs>
</svg>
