<svg width="40" height="40" viewBox="0 0 40 40" fill="none" xmlns="http://www.w3.org/2000/svg">
<path d="M38.125 8.75H27.5V1.875C27.5 1.70924 27.4342 1.55027 27.3169 1.43306C27.1997 1.31585 27.0408 1.25 26.875 1.25H13.125C12.9592 1.25 12.8003 1.31585 12.6831 1.43306C12.5658 1.55027 12.5 1.70924 12.5 1.875V8.75H1.875C1.70924 8.75 1.55027 8.81585 1.43306 8.93306C1.31585 9.05027 1.25 9.20924 1.25 9.375V38.125C1.25 38.2908 1.31585 38.4497 1.43306 38.5669C1.55027 38.6842 1.70924 38.75 1.875 38.75H38.125C38.2908 38.75 38.4497 38.6842 38.5669 38.5669C38.6842 38.4497 38.75 38.2908 38.75 38.125V9.375C38.75 9.20924 38.6842 9.05027 38.5669 8.93306C38.4497 8.81585 38.2908 8.75 38.125 8.75ZM12.5 37.5H2.5V35.625H12.5V37.5ZM12.5 34.375H2.5V13.125H12.5V34.375ZM12.5 11.875H2.5V10H12.5V11.875ZM26.25 37.5H13.75V35.625H26.25V37.5ZM26.25 34.375H13.75V5.625H26.25V34.375ZM26.25 4.375H13.75V2.5H26.25V4.375ZM37.5 37.5H27.5V35.625H37.5V37.5ZM37.5 34.375H27.5V13.125H37.5V34.375ZM37.5 11.875H27.5V10H37.5V11.875Z" fill="#414141"/>
<path d="M20 13.125C19.337 13.125 18.7011 13.3884 18.2322 13.8572C17.7634 14.3261 17.5 14.962 17.5 15.625V24.375C17.5 25.038 17.7634 25.6739 18.2322 26.1428C18.7011 26.6116 19.337 26.875 20 26.875C20.663 26.875 21.2989 26.6116 21.7678 26.1428C22.2366 25.6739 22.5 25.038 22.5 24.375V15.625C22.5 14.962 22.2366 14.3261 21.7678 13.8572C21.2989 13.3884 20.663 13.125 20 13.125ZM21.25 24.375C21.25 24.7065 21.1183 25.0245 20.8839 25.2589C20.6495 25.4933 20.3315 25.625 20 25.625C19.6685 25.625 19.3505 25.4933 19.1161 25.2589C18.8817 25.0245 18.75 24.7065 18.75 24.375V15.625C18.75 15.2935 18.8817 14.9755 19.1161 14.7411C19.3505 14.5067 19.6685 14.375 20 14.375C20.3315 14.375 20.6495 14.5067 20.8839 14.7411C21.1183 14.9755 21.25 15.2935 21.25 15.625V24.375ZM20 11.875C20.4945 11.875 20.9778 11.7284 21.3889 11.4537C21.8001 11.179 22.1205 10.7885 22.3097 10.3317C22.4989 9.87489 22.5484 9.37223 22.452 8.88728C22.3555 8.40232 22.1174 7.95687 21.7678 7.60723C21.4181 7.2576 20.9727 7.0195 20.4877 6.92304C20.0028 6.82657 19.5001 6.87608 19.0433 7.0653C18.5865 7.25452 18.196 7.57495 17.9213 7.98608C17.6466 8.3972 17.5 8.88055 17.5 9.375C17.5 10.038 17.7634 10.6739 18.2322 11.1428C18.7011 11.6116 19.337 11.875 20 11.875ZM20 8.125C20.2472 8.125 20.4889 8.19831 20.6945 8.33566C20.9 8.47302 21.0602 8.66824 21.1549 8.89665C21.2495 9.12505 21.2742 9.37639 21.226 9.61886C21.1778 9.86134 21.0587 10.0841 20.8839 10.2589C20.7091 10.4337 20.4863 10.5528 20.2439 10.601C20.0014 10.6492 19.7501 10.6245 19.5216 10.5299C19.2932 10.4352 19.098 10.275 18.9607 10.0695C18.8233 9.8639 18.75 9.62223 18.75 9.375C18.75 9.04348 18.8817 8.72554 19.1161 8.49112C19.3505 8.2567 19.6685 8.125 20 8.125ZM20 28.125C19.5055 28.125 19.0222 28.2716 18.6111 28.5463C18.2 28.821 17.8795 29.2115 17.6903 29.6683C17.5011 30.1251 17.4516 30.6278 17.548 31.1127C17.6445 31.5977 17.8826 32.0431 18.2322 32.3928C18.5819 32.7424 19.0273 32.9805 19.5123 33.077C19.9972 33.1734 20.4999 33.1239 20.9567 32.9347C21.4135 32.7455 21.804 32.4251 22.0787 32.0139C22.3534 31.6028 22.5 31.1195 22.5 30.625C22.5 29.962 22.2366 29.3261 21.7678 28.8572C21.2989 28.3884 20.663 28.125 20 28.125ZM20 31.875C19.7528 31.875 19.5111 31.8017 19.3055 31.6643C19.1 31.527 18.9398 31.3318 18.8452 31.1034C18.7505 30.8749 18.7258 30.6236 18.774 30.3811C18.8223 30.1387 18.9413 29.9159 19.1161 29.7411C19.2909 29.5663 19.5137 29.4473 19.7561 29.399C19.9986 29.3508 20.2499 29.3755 20.4784 29.4702C20.7068 29.5648 20.902 29.725 21.0393 29.9305C21.1767 30.1361 21.25 30.3778 21.25 30.625C21.25 30.9565 21.1183 31.2745 20.8839 31.5089C20.6495 31.7433 20.3315 31.875 20 31.875Z" fill="#414141"/>
</svg>
