<svg width="14" height="15" viewBox="0 0 14 15" fill="none" xmlns="http://www.w3.org/2000/svg">
<g id="Email" clip-path="url(#clip0_316_707)">
<path id="Vector" d="M12.3199 3.72H1.6799C1.5259 3.72 1.3999 3.846 1.3999 4V11C1.3999 11.154 1.5259 11.28 1.6799 11.28H12.3199C12.4739 11.28 12.5999 11.154 12.5999 11V4C12.5999 3.846 12.4739 3.72 12.3199 3.72ZM11.6479 4.28L6.9999 8.928L2.3519 4.28H11.6479ZM1.9599 4.672L4.7879 7.5L1.9599 10.328V4.672ZM2.3659 10.72L5.1799 7.906L6.8039 9.53C6.9159 9.642 7.0839 9.642 7.1959 9.53L8.8199 7.906L11.6339 10.72H2.3659ZM12.0399 10.328L9.2119 7.5L12.0399 4.672V10.328Z" fill="#CECECE"/>
<path id="Vector_2" d="M112.56 -70.9V164.86H-137.2V-70.9H112.56ZM113.68 -72.02H-138.32V165.98H113.68V-72.02Z" fill="#0000FF"/>
</g>
<defs>
<clipPath id="clip0_316_707">
<rect width="14" height="14" fill="white" transform="translate(0 0.5)"/>
</clipPath>
</defs>
</svg>
