<svg width="14" height="15" viewBox="0 0 14 15" fill="none" xmlns="http://www.w3.org/2000/svg">
<g id="Globe">
<path id="Vector" fill-rule="evenodd" clip-rule="evenodd" d="M7.29662 1.8125C6.00249 1.8125 4.80593 2.23338 3.83249 2.94038C3.52449 2.52475 3.03712 2.25 2.48412 2.25C1.55399 2.25 0.797119 3.01475 0.797119 3.94969C0.797119 4.21962 0.905619 4.49394 1.05087 4.77744C1.19656 5.06138 1.38381 5.35013 1.57149 5.61175C1.62399 5.68438 1.66381 5.729 1.71499 5.79681C1.50084 6.41499 1.39113 7.06453 1.39037 7.71875C1.39037 10.9781 4.03724 13.625 7.29662 13.625C10.556 13.625 13.2029 10.9781 13.2029 7.71875C13.2029 4.45938 10.556 1.8125 7.29662 1.8125ZM7.07787 2.25919V4.4375H5.17912C5.58074 3.587 6.13068 2.84938 6.78824 2.27494C6.88362 2.26619 6.98074 2.26312 7.07787 2.25919ZM7.51537 2.26094C7.61468 2.26531 7.71487 2.26663 7.81287 2.27581C8.37646 2.77396 8.84941 3.36606 9.21068 4.02581C9.08381 4.14481 8.97881 4.28394 8.89349 4.4375H7.51537V2.26094ZM6.02087 2.40312C5.46637 3.00143 5.01713 3.68927 4.69218 4.4375H4.06393C4.12518 4.27256 4.17068 4.11025 4.17068 3.94969C4.17068 3.72831 4.12474 3.51744 4.04774 3.32319C4.63667 2.88656 5.30784 2.5736 6.02087 2.40312ZM8.57324 2.40531C9.48849 2.62406 10.3119 3.07206 10.9839 3.68631C10.7854 3.60507 10.5731 3.56302 10.3587 3.5625C10.0816 3.56465 9.8094 3.63641 9.56724 3.77119C9.29149 3.27783 8.95763 2.81927 8.57281 2.40531H8.57324ZM2.48412 2.6875C3.17537 2.6875 3.73318 3.24925 3.73318 3.94969C3.73318 4.08838 3.65793 4.32462 3.52799 4.57837C3.39806 4.83212 3.21912 5.10644 3.03931 5.35713C2.76193 5.74431 2.59612 5.92587 2.48368 6.05494C2.37212 5.92587 2.20543 5.74431 1.92806 5.35713C1.74824 5.10644 1.56974 4.83212 1.43981 4.57837C1.30987 4.32462 1.23462 4.08838 1.23462 3.94969C1.23462 3.24925 1.79243 2.6875 2.48412 2.6875ZM2.48412 3.0725C2.09474 3.0725 1.77537 3.39494 1.77537 3.78475C1.77537 4.17412 2.09474 4.49656 2.48412 4.49656C2.87349 4.49656 3.19243 4.17456 3.19243 3.78475C3.19209 3.5966 3.1174 3.41621 2.98465 3.28288C2.85189 3.14955 2.67183 3.07409 2.48368 3.07294L2.48412 3.0725ZM2.48412 3.51C2.63506 3.51 2.75493 3.62944 2.75493 3.78475C2.75563 3.82075 2.74912 3.85652 2.73579 3.88997C2.72246 3.92342 2.70257 3.95386 2.67729 3.9795C2.65201 4.00514 2.62186 4.02547 2.58861 4.03928C2.55536 4.0531 2.51969 4.06012 2.48368 4.05994C2.44771 4.06 2.41209 4.05288 2.37892 4.03899C2.34574 4.02509 2.31567 4.00471 2.29048 3.97903C2.26529 3.95335 2.24549 3.9229 2.23224 3.88946C2.21899 3.85602 2.21255 3.82027 2.21331 3.78431C2.21331 3.62944 2.33318 3.51 2.48412 3.51ZM10.3591 4C11.0504 4 11.6082 4.56175 11.6082 5.26219C11.6082 5.40088 11.5321 5.63712 11.4026 5.89087C11.2726 6.14462 11.0946 6.41894 10.9152 6.66963C10.6378 7.05681 10.4711 7.23837 10.3591 7.36744C10.2471 7.23837 10.0804 7.05681 9.80262 6.66963C9.62324 6.41894 9.44562 6.14462 9.31568 5.89087C9.18574 5.63712 9.11006 5.40088 9.11006 5.26219C9.10962 4.56175 9.66743 4 10.3591 4ZM10.3591 4.385C9.96974 4.385 9.65037 4.70744 9.65037 5.09725C9.65037 5.48663 9.96974 5.80906 10.3591 5.80906C10.7485 5.80906 11.0666 5.48706 11.0666 5.09725C11.0666 4.70788 10.7485 4.385 10.3591 4.385ZM10.3591 4.8225C10.5101 4.8225 10.6291 4.94194 10.6291 5.09725C10.6298 5.13311 10.6234 5.16876 10.6101 5.2021C10.5969 5.23544 10.5771 5.26579 10.552 5.29135C10.5268 5.31692 10.4968 5.33719 10.4637 5.35097C10.4305 5.36474 10.395 5.37175 10.3591 5.37156C10.3232 5.37175 10.2877 5.36474 10.2546 5.35097C10.2215 5.33719 10.1914 5.31692 10.1663 5.29135C10.1411 5.26579 10.1213 5.23544 10.1081 5.2021C10.0949 5.16876 10.0884 5.13311 10.0892 5.09725C10.0892 4.94194 10.2082 4.8225 10.3591 4.8225ZM3.86137 4.875H4.51674C4.20878 5.71696 4.04103 6.60373 4.02018 7.5H1.83793C1.85543 7.05638 1.92193 6.62631 2.03918 6.21637C2.20106 6.415 2.32093 6.55237 2.32093 6.55237C2.34145 6.57536 2.3666 6.59375 2.39472 6.60635C2.42284 6.61894 2.45331 6.62545 2.48412 6.62545C2.51493 6.62545 2.5454 6.61894 2.57352 6.60635C2.60164 6.59375 2.62679 6.57536 2.64731 6.55237C2.64731 6.55237 3.02093 6.135 3.39543 5.61175C3.56168 5.37987 3.72443 5.127 3.86137 4.875ZM4.99449 4.875H7.07787V7.5H4.45812C4.48218 6.60043 4.664 5.71201 4.99449 4.875ZM7.51537 4.875H8.72024C8.69093 4.99969 8.67212 5.12875 8.67212 5.26219C8.67212 5.53212 8.78062 5.80644 8.92587 6.08994C9.07932 6.38027 9.25361 6.65911 9.44737 6.92425C9.60924 7.15 9.76106 7.33856 9.89231 7.5H7.51537V4.875ZM12.0159 4.96294C12.4669 5.73505 12.7204 6.60648 12.754 7.5H10.8255C10.9567 7.33856 11.1086 7.15 11.2709 6.92425C11.4581 6.66262 11.6471 6.37388 11.7928 6.08994C11.9381 5.80644 12.0457 5.53212 12.0457 5.26219C12.0457 5.15981 12.033 5.0605 12.0159 4.96294ZM1.83881 7.9375H4.02062C4.04145 8.83377 4.2092 9.72055 4.51718 10.5625H2.63156C2.14757 9.76957 1.87493 8.8658 1.83968 7.9375H1.83881ZM4.45856 7.9375H7.07787V10.5625H4.99449C4.66402 9.72548 4.48263 8.83707 4.45856 7.9375ZM7.51537 7.9375H10.1264C10.0804 8.76131 9.85468 9.66694 9.46181 10.5625H7.51493L7.51537 7.9375ZM10.5656 7.9375H12.754C12.719 8.86572 12.4467 9.76948 11.963 10.5625H9.93737C10.3066 9.67438 10.5232 8.77575 10.5656 7.9375ZM2.92731 11H4.69218C5.01658 11.7469 5.46476 12.4336 6.01781 13.0313C4.78278 12.7344 3.68955 12.0161 2.92731 11ZM5.17912 11H7.07787V13.1766C6.98162 13.1722 6.88406 13.1704 6.78912 13.1617C6.13112 12.5872 5.58074 11.8505 5.17912 11ZM7.51537 11H9.24918C8.859 11.7844 8.3642 12.5121 7.77831 13.1634C7.69168 13.1713 7.60331 13.1731 7.51537 13.1766V11ZM9.74049 11H11.6664C10.875 12.0573 9.72705 12.7917 8.43543 13.0672C8.95188 12.433 9.39006 11.739 9.74049 11Z" fill="#CECECE"/>
</g>
</svg>
