<svg width="20" height="20" viewBox="0 0 20 20" fill="none" xmlns="http://www.w3.org/2000/svg">
<g id="graduation-cap" clip-path="url(#clip0_445_296)">
<path id="Vector" d="M15.1347 11.1069L15.4988 14.0205C15.4906 14.086 15.4399 14.2118 15.2191 14.3858C14.9781 14.5757 14.5984 14.7686 14.0846 14.9399C13.0623 15.2807 11.6182 15.5 10.0001 15.5C8.38199 15.5 6.93786 15.2807 5.91554 14.9399C5.40177 14.7686 5.02207 14.5757 4.78109 14.3858C4.56026 14.2118 4.5096 14.086 4.50142 14.0205L4.86552 11.1072L8.82815 12.3245C9.28345 12.4645 10.1517 12.6377 11.1715 12.3245L11.1716 12.3245L15.1347 11.1069ZM9.41599 4.58731L9.41608 4.58729C9.79499 4.47079 10.2052 4.47076 10.5845 4.58731L19.3013 7.26541C19.3013 7.26542 19.3013 7.26543 19.3014 7.26544C19.4534 7.31222 19.5002 7.41353 19.5002 7.49999C19.5002 7.58644 19.4534 7.68775 19.3014 7.73453C19.3013 7.73454 19.3013 7.73455 19.3013 7.73456L10.5842 10.4126C10.0769 10.5684 9.64251 10.4822 9.41569 10.4127C9.41563 10.4126 9.41557 10.4126 9.41551 10.4126L3.30413 8.53485L3.07317 8.46389L2.87405 8.60075C2.76631 8.6748 2.66685 8.75822 2.57671 8.84971L2.92566 8.41835L2.21849 8.2011L0.698799 7.73422L0.698763 7.73421C0.547067 7.68762 0.500244 7.58647 0.500244 7.49983C0.500244 7.41319 0.547067 7.31204 0.698763 7.26545L0.698801 7.26544L9.41599 4.58731ZM2.00233 10.4404L2.00251 10.4356L2.24986 10.5869C2.41096 10.6854 2.50009 10.8374 2.50009 11C2.50009 11.149 2.4237 11.2902 2.27776 11.3937L2.00682 11.5858L2.07887 11.91L2.87668 15.5L2.87665 15.5H1.1235L1.92131 11.91L1.99336 11.5858L1.72242 11.3937C1.57648 11.2902 1.50009 11.149 1.50009 11C1.50009 10.8307 1.595 10.6739 1.76155 10.5785L2.00233 10.4404Z" stroke="#CCCCCC"/>
</g>
<defs>
<clipPath id="clip0_445_296">
<rect width="20" height="20" fill="white"/>
</clipPath>
</defs>
</svg>
