<svg width="40" height="40" viewBox="0 0 40 40" fill="none" xmlns="http://www.w3.org/2000/svg">
<path d="M16.0057 9.66159L16.0143 9.68108L16.0236 9.70018C16.057 9.76798 16.0799 9.83964 16.0921 9.91296L16.5535 16.7734L16.5535 16.7742L16.782 20.2135C16.7881 20.6597 16.8596 21.1025 16.9942 21.5283L17.0081 21.5723L17.026 21.6148C17.4696 22.6683 18.5278 23.3232 19.6635 23.2775L19.6761 23.277L19.6886 23.2762L30.755 22.5524C30.9691 22.5538 31.1713 22.6362 31.3203 22.7775C31.4409 22.892 31.5187 23.0374 31.5478 23.1914L31.5574 23.3049C31.0992 29.1747 26.7722 34.0804 20.8763 35.3525C14.9528 36.6305 8.89046 33.9282 5.97381 28.7366C5.13595 27.2328 4.61308 25.5809 4.43514 23.8777L4.43294 23.8567L4.42986 23.8358C4.3576 23.3457 4.32579 22.8507 4.33472 22.3556L4.3349 22.3459L4.33488 22.3361C4.3257 16.0163 8.82103 10.5299 15.1488 9.1927C15.5206 9.14419 15.8669 9.34582 16.0057 9.66159Z" stroke="#414141" stroke-width="2"/>
<path d="M21.4054 4.33374L21.415 4.33417L21.4246 4.33442C28.4671 4.51358 34.3784 9.51242 35.6337 16.2546L35.617 16.294L35.6216 16.5087L35.6251 16.6705C35.6163 16.7308 35.5903 16.7899 35.547 16.8405C35.4994 16.8961 35.4335 16.9381 35.3574 16.9584L35.2529 16.9727L22.4874 17.7998L22.4706 17.8009L22.4539 17.8025C22.3036 17.8174 22.1573 17.7683 22.0512 17.6737C21.9705 17.6016 21.9192 17.509 21.9 17.4118L21.0443 4.68071L21.0456 4.64181C21.0482 4.56297 21.0829 4.48407 21.1487 4.42436C21.2152 4.36403 21.3075 4.32937 21.4054 4.33374Z" stroke="#414141" stroke-width="2"/>
</svg>
