<svg width="40" height="40" viewBox="0 0 40 40" fill="none" xmlns="http://www.w3.org/2000/svg">
<g clip-path="url(#clip0_274_997)">
<path d="M17.4734 17.378H11.5759C11.4101 17.378 11.2511 17.4439 11.1339 17.5611C11.0167 17.6783 10.9509 17.8373 10.9509 18.003V36.8271C10.9509 36.9929 11.0167 37.1518 11.1339 37.269C11.2511 37.3862 11.4101 37.4521 11.5759 37.4521H17.4734C17.6391 37.4521 17.7981 37.3862 17.9153 37.269C18.0325 37.1518 18.0984 36.9929 18.0984 36.8271V18.003C18.0984 17.8373 18.0325 17.6783 17.9153 17.5611C17.7981 17.4439 17.6391 17.378 17.4734 17.378ZM16.8484 36.2021H12.2009V18.628H16.8484V36.2021ZM28.4243 19.8361H22.5267C22.361 19.8361 22.202 19.9019 22.0848 20.0191C21.9676 20.1364 21.9017 20.2953 21.9017 20.4611V36.8271C21.9017 36.9929 21.9676 37.1518 22.0848 37.269C22.202 37.3862 22.361 37.4521 22.5267 37.4521H28.4243C28.5901 37.4521 28.749 37.3862 28.8662 37.269C28.9834 37.1518 29.0493 36.9929 29.0493 36.8271V20.4611C29.0493 20.2953 28.9834 20.1364 28.8662 20.0191C28.749 19.9019 28.5901 19.8361 28.4243 19.8361ZM27.7993 36.2022H23.1517V21.0861H27.7993V36.2022ZM39.375 9.64186H33.4774C33.3117 9.64186 33.1527 9.70771 33.0355 9.82492C32.9183 9.94213 32.8524 10.1011 32.8524 10.2669V36.827C32.8524 36.9928 32.9183 37.1518 33.0355 37.269C33.1527 37.3862 33.3117 37.452 33.4774 37.452H39.375C39.5408 37.452 39.6997 37.3862 39.8169 37.269C39.9342 37.1518 40 36.9928 40 36.827V10.2669C40 10.1011 39.9342 9.94213 39.8169 9.82492C39.6997 9.70771 39.5408 9.64186 39.375 9.64186ZM38.75 36.202H34.1024V10.8919H38.75V36.202ZM6.5225 24.6799H0.625C0.45924 24.6799 0.300269 24.7458 0.183058 24.863C0.065848 24.9802 0 25.1392 0 25.3049L0 36.827C0 36.9928 0.065848 37.1518 0.183058 37.269C0.300269 37.3862 0.45924 37.452 0.625 37.452H6.5225C6.68826 37.452 6.84723 37.3862 6.96444 37.269C7.08165 37.1518 7.1475 36.9928 7.1475 36.827V25.3049C7.1475 25.1392 7.08165 24.9802 6.96444 24.863C6.84723 24.7458 6.68826 24.6799 6.5225 24.6799ZM5.8975 36.202H1.25V25.9299H5.8975V36.202ZM3.08063 19.5787C2.97879 19.448 2.93307 19.2821 2.95354 19.1176C2.97401 18.9531 3.05898 18.8035 3.18977 18.7016L14.1406 10.1746C14.2212 10.1119 14.3158 10.0698 14.4164 10.0522C14.5169 10.0345 14.6202 10.0417 14.7173 10.0732L25.3024 13.504L34.5009 4.22686L32.963 4.55819C32.6259 4.631 32.2931 4.41624 32.2204 4.07882C32.2031 3.99858 32.2018 3.91573 32.2165 3.83498C32.2313 3.75424 32.2617 3.67719 32.3063 3.60823C32.3508 3.53927 32.4084 3.47976 32.476 3.43309C32.5435 3.38642 32.6195 3.35351 32.6998 3.33624L36.2945 2.56194C36.3947 2.54041 36.4986 2.54382 36.5971 2.57187C36.6957 2.59993 36.7858 2.65178 36.8596 2.72285C36.9334 2.79391 36.9886 2.88203 37.0203 2.97944C37.0521 3.07685 37.0594 3.18057 37.0416 3.28147L36.4639 6.55796C36.435 6.72115 36.3426 6.8662 36.2068 6.96126C36.0711 7.05631 35.9031 7.09359 35.7399 7.06491C35.6591 7.05066 35.5818 7.02064 35.5126 6.97654C35.4434 6.93244 35.3835 6.87513 35.3364 6.8079C35.2894 6.74066 35.256 6.66481 35.2382 6.58467C35.2204 6.50454 35.2186 6.42168 35.2329 6.34085L35.4638 5.03108L25.9193 14.6571C25.8379 14.7392 25.7353 14.7971 25.6229 14.8244C25.5105 14.8517 25.3928 14.8473 25.2828 14.8116L14.6471 11.3645L3.95773 19.6879C3.8482 19.7734 3.71319 19.8198 3.57422 19.8198C3.47901 19.8199 3.38504 19.7982 3.29948 19.7565C3.21393 19.7147 3.13907 19.6539 3.08063 19.5787Z" fill="#414141"/>
</g>
<defs>
<clipPath id="clip0_274_997">
<rect width="40" height="40" fill="white"/>
</clipPath>
</defs>
</svg>
