<svg width="30" height="27" viewBox="0 0 30 27" fill="none" xmlns="http://www.w3.org/2000/svg">
<g id="Luggage">
<path id="Vector" d="M7.96875 5.68066C6.3532 5.68265 4.80438 6.32529 3.66201 7.46766C2.51964 8.61003 1.87698 10.1588 1.875 11.7744C1.875 15.1344 4.60875 17.8681 7.96875 17.8681C11.3278 17.8681 14.0625 15.1344 14.0625 11.7744C14.0625 8.41532 11.3278 5.68066 7.96875 5.68066ZM7.5 6.71378V8.49316H4.07344C4.49975 7.98607 5.02178 7.56792 5.60971 7.26261C6.19765 6.9573 6.83998 6.7708 7.5 6.71378ZM8.4375 6.71378C9.77015 6.82919 11.0024 7.46926 11.8631 8.49316H8.4375V6.71378ZM3.44157 9.43064H7.5V11.3056H2.90719C2.97094 10.6306 3.14438 10.0044 3.44157 9.43064ZM8.4375 9.43064H12.495C12.7931 10.0044 12.9656 10.6306 13.0294 11.3056H8.4375V9.43064ZM2.90719 12.2431H7.5V14.1181H3.44157C3.14337 13.5338 2.96187 12.8969 2.90719 12.2431ZM8.4375 12.2431H13.0294C12.9747 12.8969 12.7932 13.5338 12.495 14.1181H8.4375V12.2431ZM4.07344 15.0556H7.5V16.836C6.83991 16.7788 6.19754 16.5922 5.6096 16.2867C5.02166 15.9813 4.49966 15.5629 4.07344 15.0556ZM8.4375 15.0556H11.8631C11.437 15.5628 10.9152 15.9811 10.3274 16.2866C9.73962 16.592 9.09743 16.7787 8.4375 16.836V15.0556Z" fill="#FE6C3F"/>
<path id="Vector_2" fill-rule="evenodd" clip-rule="evenodd" d="M5.5988 6.36206C4.13911 9.95737 3.89724 13.4121 5.49099 17.1489L6.35349 16.7805C4.85255 13.2621 5.07193 10.1552 6.4688 6.71551L5.5988 6.36206ZM10.2957 6.36206L9.42568 6.71551C10.8226 10.1552 11.0419 13.2621 9.54099 16.7805L10.4035 17.1489C11.9972 13.4111 11.7554 9.95737 10.2957 6.36206Z" fill="#FE6C3F"/>
<g id="Group">
<path id="Vector_3" d="M1.79907 20.0337V21.5993H2.26314V21.1774H2.50876C2.91283 21.1774 3.14533 20.9618 3.14533 20.5896C3.14533 20.2343 2.91283 20.0337 2.50876 20.0337H1.79907ZM2.26314 20.3899H2.48626C2.62501 20.3899 2.70564 20.4668 2.70564 20.6027C2.70564 20.7433 2.62501 20.8193 2.48626 20.8193H2.26314V20.3909V20.3899ZM4.25251 21.3481L4.34439 21.5984H4.83939L4.19438 20.0327H3.71627L3.04876 21.5984H3.52689L3.62064 21.3481H4.25251ZM4.1297 21.0087H3.75001L3.9422 20.4977L4.1297 21.0087ZM5.59033 20.0131C5.19939 20.0131 4.94345 20.2052 4.94345 20.5071C4.94345 21.0584 5.76002 20.9083 5.76002 21.1446C5.76002 21.2168 5.6972 21.2506 5.5997 21.2506C5.43845 21.2506 5.17783 21.1474 5.01658 21.0115L4.8422 21.364C5.03907 21.5177 5.3297 21.6115 5.59501 21.6115C5.94564 21.6115 6.24002 21.4531 6.24002 21.1212C6.24002 20.5559 5.42251 20.6918 5.42251 20.4621C5.42251 20.404 5.47408 20.3777 5.55189 20.3777C5.68408 20.3777 5.91189 20.4602 6.0722 20.5512L6.2447 20.1949C6.04732 20.0756 5.82098 20.0127 5.59033 20.0131ZM7.05095 20.0131C6.66001 20.0131 6.40407 20.2052 6.40407 20.5071C6.40407 21.0584 7.22064 20.9083 7.22064 21.1446C7.22064 21.2168 7.15877 21.2506 7.06033 21.2506C6.89908 21.2506 6.63845 21.1474 6.4772 21.0115L6.30282 21.364C6.4997 21.5177 6.79032 21.6115 7.05564 21.6115C7.40626 21.6115 7.70064 21.4531 7.70064 21.1212C7.70064 20.5559 6.88408 20.6918 6.88408 20.4621C6.88408 20.404 6.9347 20.3777 7.01345 20.3777C7.1447 20.3777 7.37251 20.4602 7.53376 20.5512L7.70532 20.1949C7.50794 20.0756 7.28161 20.0127 7.05095 20.0131ZM7.86939 20.0337V21.5993H8.33345V21.1774H8.57907C8.98314 21.1774 9.21564 20.9618 9.21564 20.5896C9.21564 20.2343 8.98314 20.0337 8.57814 20.0337H7.86939ZM8.33345 20.3899H8.55657C8.69532 20.3899 8.77501 20.4668 8.77501 20.6027C8.77501 20.7433 8.69532 20.8193 8.55657 20.8193H8.33345V20.3909V20.3899ZM10.1588 20.0196C9.66751 20.0196 9.30564 20.3552 9.30564 20.8146C9.30564 21.2768 9.66751 21.619 10.1588 21.619C10.65 21.619 11.0119 21.2749 11.0119 20.8146C11.0119 20.3571 10.65 20.0196 10.1588 20.0196ZM10.1653 20.4087C10.3716 20.4087 10.5356 20.5802 10.5356 20.8174C10.5356 21.0537 10.3706 21.2299 10.1653 21.2299C9.96001 21.2299 9.78095 21.0537 9.78095 20.8174C9.78095 20.5802 9.95814 20.4087 10.1653 20.4087ZM12.1059 21.5993H12.6319L12.315 21.0874C12.4847 20.9909 12.5784 20.8212 12.5784 20.5896C12.5784 20.2343 12.3375 20.0337 11.9175 20.0337H11.1872V21.5993H11.6522V21.1774H11.8978L12.1059 21.5993ZM11.6522 20.8193V20.3909H11.9175C12.0563 20.3909 12.1369 20.4658 12.1369 20.6027C12.1369 20.7433 12.0563 20.8193 11.9175 20.8193H11.6522ZM14.0616 20.404V20.0337H12.6872V20.404H13.14V21.5984H13.6069V20.404H14.0616Z" fill="#FE6C3F"/>
</g>
<path id="Vector_4" d="M17.2997 5.51091L17.4169 6.44091C18.3412 6.32466 19.29 6.51309 20.1853 6.92465L19.2853 8.48276L17.4009 7.3934L16.9322 8.20433L18.8165 9.29369L17.879 10.9174L17.4919 10.6924L17.0231 11.5034L17.4131 11.7284L16.9041 12.6096L17.715 13.0784L18.224 12.1972L22.1587 14.4696C21.7733 15.0049 21.287 15.4597 20.7272 15.8084L17.5725 13.9869L17.1037 14.7978L19.6959 16.2959C18.9647 16.5471 18.2109 16.7721 17.4309 16.6784L17.3194 17.6084C18.5052 17.7511 19.7068 17.5424 20.7751 17.0082C21.8434 16.4741 22.7314 15.638 23.3287 14.6037C24.135 13.2037 24.353 11.541 23.9349 9.98045C23.5167 8.41991 22.4967 7.08898 21.0984 6.27963C19.9501 5.6155 18.6159 5.34552 17.2997 5.51091ZM20.9887 7.40934C21.5318 7.78854 21.9949 8.271 22.3515 8.82918C22.7081 9.38735 22.9513 10.0103 23.0672 10.6625L20.099 8.95151L20.9887 7.40934ZM19.6303 9.76244L23.1441 11.7912C23.1103 12.4466 22.9492 13.0892 22.6697 13.6831L18.6928 11.3862L19.6303 9.76244Z" fill="#FE6C3F"/>
<path id="Vector_5" fill-rule="evenodd" clip-rule="evenodd" d="M18.7078 5.68433C18.1078 6.148 17.537 6.64832 16.9987 7.18244L17.6615 7.84526C18.172 7.33855 18.7134 6.8639 19.2825 6.42402L18.7078 5.68433ZM21.8437 7.90431C21.3337 11.5812 19.9725 14.3815 16.9125 16.6784L17.475 17.4284C20.7243 14.989 22.2394 11.8774 22.7719 8.03463L21.8437 7.90431Z" fill="#FE6C3F"/>
<path id="Vector_6" d="M19.0153 22.0774L19.2 21.7558L18.0094 21.0686L17.8238 21.3893L18.2166 21.6161L17.6194 22.6502L18.0225 22.8846L18.6206 21.8495L19.0153 22.0774Z" fill="#FE6C3F"/>
<path id="Vector_7" d="M16.0997 0.27496L16.17 0.28154C16.1467 0.277902 16.1232 0.276011 16.0997 0.275904V0.27496ZM16.17 0.28154C15.9544 0.248391 15.7338 0.280273 15.5364 0.373122C15.339 0.465971 15.1738 0.615569 15.0619 0.80279L13.8037 2.9778C13.7586 3.05498 13.7365 3.14343 13.74 3.23277L13.7456 3.35748C13.7507 3.47836 13.8023 3.59256 13.8897 3.67626C13.977 3.75995 14.0934 3.80663 14.2144 3.80652H15C16.0462 3.80652 16.875 4.63433 16.875 5.68152V21.6191C16.8775 22.0966 16.6954 22.5567 16.3669 22.9032C16.0383 23.2498 15.5886 23.4561 15.1115 23.4791C15.0104 23.4845 14.9137 23.5226 14.836 23.5876C14.7584 23.6526 14.7038 23.741 14.6806 23.8396C14.6574 23.9382 14.6667 24.0417 14.7072 24.1345C14.7477 24.2274 14.8172 24.3046 14.9053 24.3546L16.1897 25.0971C16.8362 25.4687 17.6036 25.5688 18.3237 25.3755C19.0439 25.1822 19.658 24.7112 20.0315 24.0659L28.0003 10.264C28.3719 9.61793 28.4723 8.85081 28.2793 8.13084C28.0864 7.41088 27.6159 6.79677 26.9709 6.4231L21.2878 3.14185L19.7278 2.24091L16.5815 0.424048C16.4543 0.350933 16.3152 0.302573 16.17 0.28154ZM16.0322 1.2078C16.0603 1.21248 16.0865 1.22184 16.1128 1.23684L19.259 3.05373L20.819 3.95372L26.5022 7.23497C26.7168 7.35655 26.9052 7.51964 27.0562 7.71474C27.2072 7.90983 27.3179 8.13304 27.3817 8.37134C27.4456 8.60964 27.4614 8.85829 27.4282 9.10276C27.395 9.34723 27.3135 9.58265 27.1884 9.7953L19.2197 23.5981C19.0979 23.8127 18.9347 24.001 18.7395 24.1519C18.5443 24.3029 18.321 24.4135 18.0827 24.4774C17.8444 24.5412 17.5957 24.557 17.3512 24.5239C17.1067 24.4908 16.8712 24.4093 16.6584 24.2843L16.1184 23.9731C17.0615 23.5212 17.8125 22.7328 17.8125 21.6191V5.68152C17.8125 4.1309 16.5497 2.86902 15 2.86902H14.9484L15.8728 1.27154C15.9009 1.22279 15.9534 1.19655 16.0322 1.2078Z" fill="#FE6C3F"/>
<path id="Vector_8" d="M8.4375 2.86816C8.31318 2.86816 8.19395 2.91753 8.10604 3.00544C8.01814 3.09334 7.96875 3.21259 7.96875 3.33691C7.96875 3.46123 8.01814 3.58046 8.10604 3.66836C8.19395 3.75627 8.31318 3.80566 8.4375 3.80566H15C16.0463 3.80566 16.875 4.63441 16.875 5.68066V21.6181C16.875 22.6653 16.0463 23.4931 15 23.4931H8.4375C8.31318 23.4931 8.19395 23.5426 8.10604 23.6305C8.01814 23.7184 7.96875 23.8376 7.96875 23.9619C7.96875 24.0862 8.01814 24.2055 8.10604 24.2934C8.19395 24.3813 8.31318 24.4306 8.4375 24.4306H15C16.5497 24.4306 17.8125 23.1688 17.8125 21.6181V5.68066C17.8125 4.13098 16.5497 2.86816 15 2.86816H8.4375Z" fill="#FE6C3F"/>
<path id="Vector_9" d="M1.12969 2.86816C0.527814 2.86816 0 3.34442 0 3.95567V23.3432C0 23.9544 0.527814 24.4306 1.12969 24.4306H13.125C14.6747 24.4306 15.9375 23.1688 15.9375 21.6181V5.68066C15.9375 4.13098 14.6747 2.86816 13.125 2.86816H1.12969ZM1.12969 3.80566H13.125C14.1713 3.80566 15 4.63441 15 5.68066V21.6181C15 22.6653 14.1713 23.4931 13.125 23.4931H1.12969C0.998439 23.4931 0.9375 23.4182 0.9375 23.3432V3.95567C0.9375 3.88067 0.999377 3.80566 1.12969 3.80566Z" fill="#FE6C3F"/>
<path id="Vector_10" d="M22.6424 4.01282C22.5412 4.01894 22.4447 4.05771 22.3674 4.12332C22.2901 4.18893 22.2361 4.27784 22.2136 4.37672C22.1911 4.47559 22.2013 4.57911 22.2426 4.67172C22.2839 4.76432 22.3542 4.84102 22.4428 4.89033L28.1268 8.17158C28.3413 8.2935 28.5294 8.45685 28.6801 8.65212C28.8309 8.84738 28.9413 9.07065 29.005 9.30898C29.0687 9.54731 29.0844 9.79593 29.0511 10.0404C29.0178 10.2848 28.9363 10.5202 28.8112 10.7329L20.8424 24.5356C20.7209 24.7502 20.5578 24.9384 20.3628 25.0894C20.1678 25.2403 19.9447 25.3509 19.7065 25.4148C19.4683 25.4786 19.2198 25.4945 18.9754 25.4613C18.731 25.4282 18.4957 25.3468 18.2831 25.2219L15.2943 23.4969C15.241 23.4656 15.182 23.4452 15.1208 23.4368C15.0595 23.4284 14.9972 23.4323 14.9374 23.4481C14.8777 23.4639 14.8216 23.4914 14.7725 23.5289C14.7234 23.5665 14.6822 23.6134 14.6513 23.6669C14.6204 23.7204 14.6004 23.7796 14.5924 23.8409C14.5844 23.9022 14.5887 23.9644 14.6049 24.0241C14.6211 24.0837 14.6489 24.1396 14.6868 24.1885C14.7247 24.2373 14.7718 24.2782 14.8256 24.3088L17.8143 26.0338C18.4604 26.4054 19.2275 26.5057 19.9475 26.3128C20.6675 26.1198 21.2816 25.6493 21.6553 25.0044L29.624 11.2016C29.996 10.5555 30.0967 9.78826 29.9039 9.06808C29.7111 8.3479 29.2406 7.73354 28.5956 7.35971L22.9115 4.07846C22.8305 4.02998 22.7367 4.0071 22.6424 4.01282Z" fill="#FE6C3F"/>
</g>
</svg>
