<svg width="16" height="16" viewBox="0 0 16 16" fill="none" xmlns="http://www.w3.org/2000/svg">
<g id="mail">
<path id="Vector" d="M8.00011 7.405L14.3901 3.3C14.1332 3.10731 13.8212 3.00215 13.5001 3H2.50011C2.17898 3.00215 1.86701 3.10731 1.61011 3.3L8.00011 7.405Z" fill="#414141"/>
<path id="Vector_2" d="M8.27 8.42001L8.185 8.46001H8.145C8.09896 8.48057 8.05007 8.49406 8 8.50001C7.9585 8.50523 7.9165 8.50523 7.875 8.50001H7.835L7.75 8.46001L1.05 4.13C1.01799 4.25077 1.00119 4.37507 1 4.5V11.5C1 11.8978 1.15804 12.2794 1.43934 12.5607C1.72064 12.842 2.10218 13 2.5 13H13.5C13.8978 13 14.2794 12.842 14.5607 12.5607C14.842 12.2794 15 11.8978 15 11.5V4.5C14.9988 4.37507 14.982 4.25077 14.95 4.13L8.27 8.42001Z" fill="#414141"/>
</g>
</svg>
