<svg width="40" height="40" viewBox="0 0 40 40" fill="none" xmlns="http://www.w3.org/2000/svg">
<path d="M22.8125 18.75H20.9375C20.75 18.75 20.625 18.625 20.625 18.4375V15.3125C20.625 15.125 20.75 15 20.9375 15H22.8125C23 15 23.125 15.125 23.125 15.3125V18.4375C23.125 18.625 23 18.75 22.8125 18.75ZM21.25 18.125H22.5V15.625H21.25V18.125Z" fill="#414141"/>
<path d="M24.6875 18.75H22.8125C22.625 18.75 22.5 18.625 22.5 18.4375V11.5625C22.5 11.375 22.625 11.25 22.8125 11.25H24.6875C24.875 11.25 25 11.375 25 11.5625V18.4375C25 18.625 24.875 18.75 24.6875 18.75ZM23.125 18.125H24.375V11.875H23.125V18.125ZM28.4375 18.75H26.5625C26.375 18.75 26.25 18.625 26.25 18.4375V12.8125C26.25 12.625 26.375 12.5 26.5625 12.5H28.4375C28.625 12.5 28.75 12.625 28.75 12.8125V18.4375C28.75 18.625 28.625 18.75 28.4375 18.75ZM26.875 18.125H28.125V13.125H26.875V18.125Z" fill="#414141"/>
<path d="M30.3125 18.75H28.4375C28.25 18.75 28.125 18.625 28.125 18.4375V7.1875C28.125 7 28.25 6.875 28.4375 6.875H30.3125C30.5 6.875 30.625 7 30.625 7.1875V18.4375C30.625 18.625 30.5 18.75 30.3125 18.75ZM28.75 18.125H30V7.5H28.75V18.125ZM34.0625 18.75H32.1875C32 18.75 31.875 18.625 31.875 18.4375V5.3125C31.875 5.125 32 5 32.1875 5H34.0625C34.25 5 34.375 5.125 34.375 5.3125V18.4375C34.375 18.625 34.25 18.75 34.0625 18.75ZM32.5 18.125H33.75V5.625H32.5V18.125Z" fill="#414141"/>
<path d="M35.9375 18.75H34.0625C33.875 18.75 33.75 18.625 33.75 18.4375V7.8125C33.75 7.625 33.875 7.5 34.0625 7.5H35.9375C36.125 7.5 36.25 7.625 36.25 7.8125V18.4375C36.25 18.625 36.125 18.75 35.9375 18.75ZM34.375 18.125H35.625V8.125H34.375V18.125Z" fill="#414141"/>
<path d="M37.1875 18.75H18.4375C18.25 18.75 18.125 18.625 18.125 18.4375C18.125 18.25 18.25 18.125 18.4375 18.125H37.1875C37.375 18.125 37.5 18.25 37.5 18.4375C37.5 18.625 37.375 18.75 37.1875 18.75ZM32.8125 20.625H22.8125C22.625 20.625 22.5 20.5 22.5 20.3125C22.5 20.125 22.625 20 22.8125 20H32.8125C33 20 33.125 20.125 33.125 20.3125C33.125 20.5 33 20.625 32.8125 20.625ZM32.8125 26.875H23.4375C23.25 26.875 23.125 26.75 23.125 26.5625C23.125 26.375 23.25 26.25 23.4375 26.25H32.8125C33 26.25 33.125 26.375 33.125 26.5625C33.125 26.75 33 26.875 32.8125 26.875ZM32.8125 25.625H23.4375C23.25 25.625 23.125 25.5 23.125 25.3125C23.125 25.125 23.25 25 23.4375 25H32.8125C33 25 33.125 25.125 33.125 25.3125C33.125 25.5 33 25.625 32.8125 25.625ZM32.8125 30.625H23.4375C23.25 30.625 23.125 30.5 23.125 30.3125C23.125 30.125 23.25 30 23.4375 30H32.8125C33 30 33.125 30.125 33.125 30.3125C33.125 30.5 33 30.625 32.8125 30.625ZM32.8125 29.375H23.4375C23.25 29.375 23.125 29.25 23.125 29.0625C23.125 28.875 23.25 28.75 23.4375 28.75H32.8125C33 28.75 33.125 28.875 33.125 29.0625C33.125 29.25 33 29.375 32.8125 29.375ZM32.8125 33.125H23.4375C23.25 33.125 23.125 33 23.125 32.8125C23.125 32.625 23.25 32.5 23.4375 32.5H32.8125C33 32.5 33.125 32.625 33.125 32.8125C33.125 33 33 33.125 32.8125 33.125ZM32.8125 34.375H23.4375C23.25 34.375 23.125 34.25 23.125 34.0625C23.125 33.875 23.25 33.75 23.4375 33.75H32.8125C33 33.75 33.125 33.875 33.125 34.0625C33.125 34.25 33 34.375 32.8125 34.375ZM19.0625 9.5C18.875 9.5 18.75 9.375 18.75 9.1875V5.3125C18.75 5.125 18.875 5 19.0625 5C19.25 5 19.375 5.125 19.375 5.3125V9.1875C19.375 9.3125 19.25 9.5 19.0625 9.5Z" fill="#414141"/>
<path d="M19.0625 19.375C18.875 19.375 18.75 19.25 18.75 19.0625V12.5C18.75 12.3125 18.875 12.1875 19.0625 12.1875C19.25 12.1875 19.375 12.3125 19.375 12.5V19.0625C19.375 19.25 19.25 19.375 19.0625 19.375ZM7.8125 37.5C7.625 37.5 7.5 37.375 7.5 37.1875V29.6875C7.5 29.5 7.625 29.375 7.8125 29.375C8 29.375 8.125 29.5 8.125 29.6875V37.1875C8.125 37.375 8 37.5 7.8125 37.5ZM8.125 15C6.0625 15 4.375 13.3125 4.375 11.25C4.375 9.1875 6.0625 7.5 8.125 7.5C10.1875 7.5 11.875 9.1875 11.875 11.25C11.875 13.3125 10.1875 15 8.125 15ZM8.125 8.125C6.375 8.125 5 9.5 5 11.25C5 13 6.375 14.375 8.125 14.375C9.875 14.375 11.25 13 11.25 11.25C11.25 9.5 9.875 8.125 8.125 8.125ZM21.5625 26.875H19.6875C19.5 26.875 19.375 26.75 19.375 26.5625V24.6875C19.375 24.5 19.5 24.375 19.6875 24.375H21.5625C21.75 24.375 21.875 24.5 21.875 24.6875V26.5625C21.875 26.75 21.75 26.875 21.5625 26.875ZM20 26.25H21.25V25H20V26.25ZM21.5625 30.625H19.6875C19.5 30.625 19.375 30.5 19.375 30.3125V28.4375C19.375 28.25 19.5 28.125 19.6875 28.125H21.5625C21.75 28.125 21.875 28.25 21.875 28.4375V30.3125C21.875 30.5 21.75 30.625 21.5625 30.625ZM20 30H21.25V28.75H20V30ZM21.5625 34.375H19.6875C19.5 34.375 19.375 34.25 19.375 34.0625V32.1875C19.375 32 19.5 31.875 19.6875 31.875H21.5625C21.75 31.875 21.875 32 21.875 32.1875V34.0625C21.875 34.25 21.75 34.375 21.5625 34.375ZM20 33.75H21.25V32.5H20V33.75Z" fill="#414141"/>
<mask id="path-7-inside-1_274_1035" fill="white">
<path d="M9.125 37.5H6.4375C5.625 37.5 4.9375 36.875 4.875 36.0625L4.4375 28.4375C4.375 28.25 4.25 28.125 4.0625 28.125C3.1875 28.125 2.5 27.4375 2.5 26.5625V19.0625C2.5 17.5 3.75 16.25 5.3125 16.25H11.5L18.5 9.18753C19 8.68753 19.8125 8.62503 20.3125 9.06253C20.875 9.56253 21 10.375 20.5625 10.9375L13.125 20.875V26.5625C13.125 27.4375 12.4375 28.125 11.5625 28.125C11.375 28.125 11.25 28.25 11.1875 28.4375L10.6875 36C10.625 36.875 9.9375 37.5 9.125 37.5ZM5.3125 16.875C4.125 16.875 3.125 17.875 3.125 19.0625V26.5625C3.125 27.0625 3.5625 27.5 4.0625 27.5C4.5625 27.5 5 27.875 5.0625 28.4375L5.5625 36C5.625 36.5 6 36.875 6.5 36.875H9.1875C9.6875 36.875 10.0625 36.5 10.125 36L10.625 28.4375C10.6875 27.9375 11.0625 27.5 11.625 27.5C12.125 27.5 12.5625 27.0625 12.5625 26.5625V20.75C12.5625 20.6875 12.5625 20.625 12.625 20.5625L20.125 10.625C20.375 10.3125 20.3125 9.87503 20 9.62503C19.6875 9.37503 19.25 9.37503 19 9.68753L11.8125 16.8125C11.75 16.875 11.6875 16.875 11.5625 16.875H5.3125Z"/>
</mask>
<path d="M9.125 37.5H6.4375C5.625 37.5 4.9375 36.875 4.875 36.0625L4.4375 28.4375C4.375 28.25 4.25 28.125 4.0625 28.125C3.1875 28.125 2.5 27.4375 2.5 26.5625V19.0625C2.5 17.5 3.75 16.25 5.3125 16.25H11.5L18.5 9.18753C19 8.68753 19.8125 8.62503 20.3125 9.06253C20.875 9.56253 21 10.375 20.5625 10.9375L13.125 20.875V26.5625C13.125 27.4375 12.4375 28.125 11.5625 28.125C11.375 28.125 11.25 28.25 11.1875 28.4375L10.6875 36C10.625 36.875 9.9375 37.5 9.125 37.5ZM5.3125 16.875C4.125 16.875 3.125 17.875 3.125 19.0625V26.5625C3.125 27.0625 3.5625 27.5 4.0625 27.5C4.5625 27.5 5 27.875 5.0625 28.4375L5.5625 36C5.625 36.5 6 36.875 6.5 36.875H9.1875C9.6875 36.875 10.0625 36.5 10.125 36L10.625 28.4375C10.6875 27.9375 11.0625 27.5 11.625 27.5C12.125 27.5 12.5625 27.0625 12.5625 26.5625V20.75C12.5625 20.6875 12.5625 20.625 12.625 20.5625L20.125 10.625C20.375 10.3125 20.3125 9.87503 20 9.62503C19.6875 9.37503 19.25 9.37503 19 9.68753L11.8125 16.8125C11.75 16.875 11.6875 16.875 11.5625 16.875H5.3125Z" fill="#414141"/>
<path d="M4.875 36.0625L2.87828 36.1771L2.8794 36.1965L2.88089 36.2159L4.875 36.0625ZM4.4375 28.4375L6.43422 28.323L6.41898 28.0574L6.33487 27.8051L4.4375 28.4375ZM11.5 16.25V18.25H12.3336L12.9205 17.6579L11.5 16.25ZM18.5 9.18753L17.0858 7.7733L17.0795 7.77961L18.5 9.18753ZM20.3125 9.06253L21.6412 7.56771L21.6354 7.56252L21.6295 7.55738L20.3125 9.06253ZM20.5625 10.9375L18.9838 9.70965L18.9724 9.72429L18.9613 9.73914L20.5625 10.9375ZM13.125 20.875L11.5238 19.6766L11.125 20.2095V20.875H13.125ZM11.1875 28.4375L9.29013 27.8051L9.20882 28.049L9.19186 28.3056L11.1875 28.4375ZM10.6875 36L12.6824 36.1425L12.6831 36.132L10.6875 36ZM5.0625 28.4375L7.05814 28.3056L7.0552 28.261L7.05027 28.2167L5.0625 28.4375ZM5.5625 36L3.56686 36.132L3.57071 36.1902L3.57794 36.2481L5.5625 36ZM10.125 36L12.1096 36.2481L12.1168 36.1902L12.1206 36.132L10.125 36ZM10.625 28.4375L8.64044 28.1895L8.63321 28.2474L8.62936 28.3056L10.625 28.4375ZM12.625 20.5625L14.0392 21.9767L14.1376 21.8784L14.2214 21.7673L12.625 20.5625ZM20.125 10.625L18.5633 9.37564L18.5456 9.39768L18.5286 9.42022L20.125 10.625ZM19 9.68753L20.408 11.1079L20.4898 11.0268L20.5617 10.9369L19 9.68753ZM11.8125 16.8125L10.4045 15.3921L10.3983 15.3983L11.8125 16.8125ZM9.125 35.5H6.4375V39.5H9.125V35.5ZM6.4375 35.5C6.65161 35.5 6.85005 35.6613 6.86911 35.9091L2.88089 36.2159C3.02495 38.0887 4.59839 39.5 6.4375 39.5V35.5ZM6.87172 35.948L6.43422 28.323L2.44078 28.5521L2.87828 36.1771L6.87172 35.948ZM6.33487 27.8051C6.10443 27.1138 5.40014 26.125 4.0625 26.125V30.125C3.67364 30.125 3.28333 29.9816 2.97987 29.7161C2.70633 29.4768 2.58857 29.2153 2.54013 29.07L6.33487 27.8051ZM4.0625 26.125C4.16146 26.125 4.2778 26.1681 4.36734 26.2577C4.45688 26.3472 4.5 26.4636 4.5 26.5625H0.5C0.5 28.5421 2.08293 30.125 4.0625 30.125V26.125ZM4.5 26.5625V19.0625H0.5V26.5625H4.5ZM4.5 19.0625C4.5 18.6046 4.85457 18.25 5.3125 18.25V14.25C2.64543 14.25 0.5 16.3955 0.5 19.0625H4.5ZM5.3125 18.25H11.5V14.25H5.3125V18.25ZM12.9205 17.6579L19.9205 10.5954L17.0795 7.77961L10.0795 14.8421L12.9205 17.6579ZM19.9142 10.6017C19.8119 10.704 19.6833 10.7588 19.5487 10.7684C19.4127 10.7781 19.1959 10.743 18.9955 10.5677L21.6295 7.55738C20.2348 6.33696 18.2302 6.62894 17.0858 7.77332L19.9142 10.6017ZM18.9838 10.5573C18.9192 10.5 18.8522 10.4001 18.8317 10.253C18.8099 10.097 18.8449 9.88818 18.9838 9.70965L22.1412 12.1654C23.3285 10.6389 22.8595 8.65062 21.6412 7.56771L18.9838 10.5573ZM18.9613 9.73914L11.5238 19.6766L14.7262 22.0734L22.1637 12.1359L18.9613 9.73914ZM11.125 20.875V26.5625H15.125V20.875H11.125ZM11.125 26.5625C11.125 26.4636 11.1681 26.3472 11.2577 26.2577C11.3472 26.1681 11.4635 26.125 11.5625 26.125V30.125C13.5421 30.125 15.125 28.5421 15.125 26.5625H11.125ZM11.5625 26.125C10.2249 26.125 9.52057 27.1138 9.29013 27.8051L13.0849 29.07C13.0364 29.2153 12.9187 29.4768 12.6451 29.7161C12.3417 29.9817 11.9514 30.125 11.5625 30.125V26.125ZM9.19186 28.3056L8.69186 35.8681L12.6831 36.132L13.1831 28.5695L9.19186 28.3056ZM8.69258 35.8575C8.69687 35.7975 8.72986 35.7038 8.81425 35.6241C8.89596 35.547 9.00927 35.5 9.125 35.5V39.5C11.0125 39.5 12.547 38.0383 12.6824 36.1425L8.69258 35.8575ZM5.3125 14.875C3.02043 14.875 1.125 16.7705 1.125 19.0625H5.125C5.125 19.0389 5.13523 18.9901 5.18765 18.9377C5.24007 18.8853 5.28891 18.875 5.3125 18.875V14.875ZM1.125 19.0625V26.5625H5.125V19.0625H1.125ZM1.125 26.5625C1.125 28.1671 2.45793 29.5 4.0625 29.5V25.5C4.401 25.5 4.66042 25.6445 4.82046 25.8046C4.98051 25.9646 5.125 26.224 5.125 26.5625H1.125ZM4.0625 29.5C3.50815 29.5 3.12084 29.0733 3.07473 28.6584L7.05027 28.2167C6.87916 26.6767 5.61685 25.5 4.0625 25.5V29.5ZM3.06686 28.5695L3.56686 36.132L7.55814 35.8681L7.05814 28.3056L3.06686 28.5695ZM3.57794 36.2481C3.74852 37.6127 4.85983 38.875 6.5 38.875V34.875C6.77259 34.875 7.04528 34.9851 7.2465 35.1768C7.43853 35.3596 7.52494 35.575 7.54706 35.752L3.57794 36.2481ZM6.5 38.875H9.1875V34.875H6.5V38.875ZM9.1875 38.875C10.8277 38.875 11.939 37.6127 12.1096 36.2481L8.14044 35.752C8.16256 35.575 8.24897 35.3596 8.441 35.1768C8.64222 34.9851 8.91491 34.875 9.1875 34.875V38.875ZM12.1206 36.132L12.6206 28.5695L8.62936 28.3056L8.12936 35.8681L12.1206 36.132ZM12.6096 28.6856C12.5901 28.8413 12.5188 29.0284 12.3517 29.1955C12.1652 29.382 11.8973 29.5 11.625 29.5V25.5C9.84061 25.5 8.79967 26.9156 8.64044 28.1895L12.6096 28.6856ZM11.625 29.5C13.2296 29.5 14.5625 28.1671 14.5625 26.5625H10.5625C10.5625 26.224 10.707 25.9646 10.867 25.8046C11.0271 25.6445 11.2865 25.5 11.625 25.5V29.5ZM14.5625 26.5625V20.75H10.5625V26.5625H14.5625ZM14.5625 20.75C14.5625 20.6816 14.572 20.8957 14.5106 21.1414C14.4324 21.4542 14.2697 21.7462 14.0392 21.9767L11.2108 19.1483C10.5265 19.8326 10.5625 20.6578 10.5625 20.75H14.5625ZM14.2214 21.7673L21.7214 11.8298L18.5286 9.42022L11.0286 19.3577L14.2214 21.7673ZM21.6867 11.8744C22.6712 10.6438 22.3678 8.95802 21.2494 8.06329L18.7506 11.1868C18.2572 10.792 18.0788 9.98121 18.5633 9.37564L21.6867 11.8744ZM21.2494 8.06329C20.2788 7.2868 18.5312 7.072 17.4383 8.43814L20.5617 10.9369C20.3064 11.2561 19.928 11.4276 19.5634 11.4435C19.2241 11.4582 18.9436 11.3412 18.7506 11.1868L21.2494 8.06329ZM17.592 8.26715L10.4045 15.3922L13.2205 18.2329L20.408 11.1079L17.592 8.26715ZM10.3983 15.3983C10.5043 15.2923 10.6467 15.1776 10.8289 15.0811C11.011 14.9847 11.1822 14.9333 11.3187 14.9061C11.4438 14.881 11.5384 14.8767 11.5656 14.8757C11.5892 14.8747 11.6051 14.875 11.5625 14.875V18.875C11.5824 18.875 11.653 18.8754 11.7254 18.8725C11.8015 18.8694 11.939 18.8612 12.1032 18.8284C12.517 18.7456 12.9075 18.546 13.2267 18.2267L10.3983 15.3983ZM11.5625 14.875H5.3125V18.875H11.5625V14.875Z" fill="#414141" mask="url(#path-7-inside-1_274_1035)"/>
<path d="M8.12501 21.25C8.00001 21.25 7.87501 21.1875 7.81251 21.0625L6.25001 16.6875C6.18751 16.5625 6.25001 16.5 6.31251 16.375C6.37501 16.3125 6.43751 16.25 6.56251 16.25H9.68751C9.81251 16.25 9.87501 16.3125 9.93751 16.375C10 16.4375 10 16.5625 10 16.6875L8.43751 21.0625C8.37501 21.1875 8.25001 21.25 8.12501 21.25ZM7.00001 16.875L8.12501 20L9.25001 16.875H7.00001Z" fill="#414141"/>
</svg>
