<svg width="38" height="40" viewBox="0 0 38 40" fill="none" xmlns="http://www.w3.org/2000/svg">
<path d="M33.4696 0.0014363C32.2814 -0.00873339 31.1179 0.341091 30.1323 1.00487C29.9152 1.16514 29.7558 1.39137 29.6779 1.64974C29.6 1.90811 29.6078 2.18475 29.7002 2.43831L30.1357 3.63397C30.2035 3.82014 30.3146 3.98753 30.4599 4.12232C30.6051 4.25711 30.7803 4.35545 30.971 4.40923C31.1617 4.46301 31.3624 4.47069 31.5567 4.43163C31.7509 4.39258 31.9331 4.3079 32.0882 4.1846C32.3981 3.97903 32.7614 3.86892 33.1332 3.86792C33.6168 3.87774 33.6169 4.00273 33.6169 4.24992C33.6169 4.68369 33.3557 5.16518 32.619 6.08992C31.2871 7.73336 31.124 9.25299 31.2264 10.2444L31.2613 10.7182C31.2845 11.033 31.4259 11.3274 31.6571 11.5422C31.8884 11.757 32.1923 11.8764 32.508 11.8764H33.9233C34.0915 11.8764 34.258 11.8425 34.4127 11.7767C34.5675 11.7108 34.7074 11.6144 34.824 11.4932C34.9406 11.3721 35.0316 11.2286 35.0915 11.0714C35.1514 10.9143 35.1789 10.7466 35.1725 10.5786L35.1543 10.1042L35.1532 10.0818C35.1255 9.58874 35.1981 9.01093 35.9113 8.12941C36.8779 6.95025 37.75 5.74513 37.75 4.04112C37.75 2.09548 36.4105 0.0014363 33.4696 0.0014363ZM34.9394 7.34324C34.1411 8.33006 33.8507 9.18412 33.9052 10.152L33.9233 10.6264H32.508L32.4716 10.1329C32.3627 9.12717 32.6894 7.98844 33.5967 6.86883C34.4132 5.84397 34.8669 5.10399 34.8669 4.24994C34.8669 3.28204 34.2862 2.63682 33.1431 2.6179C32.4855 2.61639 31.8442 2.82224 31.3103 3.20619L30.8748 2.01053C31.6454 1.50606 32.5486 1.24186 33.4696 1.25144C35.5564 1.25144 36.5 2.59879 36.5 4.04112C36.5 5.33154 35.8105 6.28054 34.9394 7.34324ZM33.3801 13.1264C33.0092 13.1254 32.6464 13.2344 32.3375 13.4396C32.0285 13.6448 31.7874 13.9369 31.6445 14.2792C31.5017 14.6214 31.4635 14.9983 31.5349 15.3623C31.6062 15.7262 31.7839 16.0608 32.0455 16.3237C32.307 16.5867 32.6406 16.7662 33.0042 16.8395C33.3677 16.9128 33.7448 16.8767 34.0878 16.7357C34.4308 16.5947 34.7243 16.3551 34.9312 16.0473C35.138 15.7395 35.2489 15.3772 35.2499 15.0064C35.2525 14.7596 35.206 14.5148 35.1131 14.2862C35.0202 14.0576 34.8828 13.8497 34.7087 13.6748C34.5347 13.4998 34.3276 13.3612 34.0995 13.2671C33.8714 13.1729 33.6269 13.1251 33.3801 13.1264ZM33.3696 15.6264H33.3591C33.2777 15.6281 33.1968 15.6131 33.1214 15.5824C33.0461 15.5517 32.9777 15.5059 32.9207 15.4478C32.8636 15.3898 32.819 15.3207 32.7897 15.2447C32.7603 15.1688 32.7467 15.0877 32.7498 15.0064C32.7463 14.9227 32.7602 14.8392 32.7907 14.7611C32.8211 14.6831 32.8674 14.6123 32.9267 14.553C32.9859 14.4938 33.0568 14.4476 33.1348 14.4172C33.2129 14.3868 33.2964 14.3729 33.3801 14.3764C33.4622 14.3771 33.5433 14.394 33.6189 14.426C33.6944 14.4581 33.7629 14.5047 33.8205 14.5632C33.878 14.6217 33.9235 14.691 33.9543 14.7671C33.9851 14.8432 34.0005 14.9246 33.9999 15.0067C33.9992 15.0887 33.9823 15.1699 33.9503 15.2454C33.9182 15.321 33.8716 15.3895 33.8131 15.4471C33.7546 15.5046 33.6853 15.5501 33.6092 15.5809C33.5331 15.6116 33.4517 15.6271 33.3696 15.6264ZM25.2496 1.65852C23.982 1.65852 23.062 2.42919 23.062 3.49102V11.4751C22.571 11.4732 21.9643 11.4714 21.3007 11.4699C22.059 10.8637 22.6104 10.037 22.8787 9.10398C23.147 8.17097 23.1189 7.17767 22.7984 6.26128C22.4779 5.34489 21.8808 4.55062 21.0895 3.98817C20.2982 3.42572 19.3518 3.12285 18.381 3.12139C17.4102 3.11992 16.4629 3.41994 15.6699 3.97999C14.8769 4.54005 14.2774 5.33251 13.9541 6.24793C13.6309 7.16335 13.5998 8.15656 13.8653 9.09038C14.1307 10.0242 14.6796 10.8525 15.4361 11.461C14.5837 11.4602 14.0194 11.4598 14 11.4598C12.8371 11.4685 11.7128 11.8781 10.8168 12.6195C9.92084 13.3609 9.30805 14.3887 9.08184 15.5294C9.02818 15.6223 8.99962 15.7276 8.99897 15.8349V16.1804C8.99463 16.2493 8.98565 16.3169 8.98417 16.3865C8.98336 16.4556 8.98831 16.5247 8.99897 16.593V24.7411C9.01841 25.2729 9.23886 25.7776 9.61582 26.1532C9.99278 26.5288 10.4982 26.7475 11.0301 26.765L11.0192 28.0113C11.0152 28.3193 11.1262 28.6178 11.3306 28.8483C11.5349 29.0788 11.8178 29.2248 12.1241 29.2578V37.5014C12.1248 38.164 12.3885 38.7992 12.8573 39.2675C13.3261 39.7357 13.9616 39.9987 14.6242 39.9987C15.2867 39.9987 15.9222 39.7357 16.391 39.2675C16.8598 38.7992 17.1235 38.164 17.1243 37.5014V29.2723H18.3743V37.5014C18.375 38.164 18.6388 38.7992 19.1075 39.2675C19.5763 39.7357 20.2118 39.9987 20.8744 39.9987C21.537 39.9987 22.1725 39.7357 22.6412 39.2675C23.11 38.7992 23.3737 38.164 23.3745 37.5014V29.2281C23.6423 29.1594 23.8797 29.0037 24.0494 28.7855C24.2192 28.5672 24.3115 28.2987 24.312 28.0223V18.4766C24.3124 18.3328 24.3457 18.191 24.4094 18.062C24.473 17.9331 24.5653 17.8204 24.6791 17.7326L26.0911 16.6501C26.5085 16.3281 26.8469 15.9149 27.0802 15.4421C27.3135 14.9692 27.4356 14.4493 27.4371 13.9221V3.49101C27.4371 2.42919 26.5171 1.65852 25.2496 1.65852ZM14.9367 7.81394C14.9367 7.13403 15.1382 6.46939 15.516 5.90406C15.8937 5.33873 16.4306 4.89811 17.0587 4.6379C17.6868 4.3777 18.378 4.3096 19.0449 4.44223C19.7117 4.57486 20.3242 4.90225 20.805 5.383C21.2858 5.86376 21.6132 6.47628 21.7459 7.14312C21.8785 7.80996 21.8104 8.50115 21.5503 9.1293C21.2901 9.75745 20.8495 10.2943 20.2842 10.6721C19.7188 11.0498 19.0542 11.2514 18.3743 11.2514C17.9229 11.2514 17.4759 11.1625 17.0588 10.9898C16.6417 10.817 16.2628 10.5638 15.9436 10.2446C15.6243 9.92544 15.3711 9.54649 15.1984 9.12943C15.0256 8.71237 14.9367 8.26536 14.9367 7.81394ZM15.8742 37.5014C15.8742 37.833 15.7425 38.1509 15.5081 38.3853C15.2737 38.6198 14.9557 38.7515 14.6242 38.7515C14.2926 38.7515 13.9747 38.6198 13.7403 38.3853C13.5058 38.1509 13.3741 37.833 13.3741 37.5014V29.2723H15.8742V37.5014ZM22.1244 37.5014C22.1244 37.833 21.9927 38.1509 21.7583 38.3853C21.5239 38.6198 21.2059 38.7515 20.8744 38.7515C20.5429 38.7515 20.2249 38.6198 19.9905 38.3853C19.756 38.1509 19.6243 37.833 19.6243 37.5014V29.2723H22.1244V37.5014ZM26.1871 13.9221C26.1871 14.2578 26.1098 14.589 25.9613 14.89C25.8127 15.1911 25.5969 15.4539 25.3305 15.6581L23.9186 16.7406C23.6522 16.9448 23.4363 17.2076 23.2878 17.5086C23.1392 17.8097 23.062 18.1409 23.062 18.4766V28.0223H12.2692L12.2825 26.4963C12.6063 26.33 12.879 26.0789 13.0712 25.7698C13.2635 25.4607 13.3682 25.1051 13.3741 24.7411V19.2724C13.3741 19.1066 13.3083 18.9476 13.1911 18.8304C13.0738 18.7132 12.9149 18.6474 12.7491 18.6474C12.5833 18.6474 12.4244 18.7132 12.3071 18.8304C12.1899 18.9476 12.1241 19.1066 12.1241 19.2724V24.7411C12.1013 24.9682 11.9903 25.1773 11.815 25.3234C11.6397 25.4695 11.414 25.5409 11.1865 25.5224C10.9591 25.5409 10.7334 25.4695 10.5581 25.3234C10.3828 25.1773 10.2718 24.9682 10.249 24.7411V16.5223L10.3393 16.6216L10.249 16.4598V16.2029C10.3246 15.2574 10.7515 14.3744 11.4456 13.7279C12.1396 13.0814 13.0506 12.7182 13.9991 12.7098C13.9991 12.7098 20.822 12.7146 23.3721 12.7264L23.3766 12.7264C23.4996 12.7264 23.6213 12.7021 23.735 12.6549C23.8486 12.6077 23.9517 12.5387 24.0386 12.4516C24.1255 12.3645 24.1944 12.2612 24.2413 12.1475C24.2882 12.0338 24.3122 11.9119 24.312 11.7889V3.49101C24.312 3.10269 24.7808 2.90851 25.2495 2.90851C25.7183 2.90851 26.1871 3.10268 26.1871 3.49101V13.9221ZM9.44553 10.3676L8.89557 7.76953L10.7222 6.87773C11.291 6.59105 11.732 6.10194 11.9585 5.50657C12.1849 4.91121 12.1804 4.25266 11.9459 3.66042L11.1296 1.58133C10.9536 1.11805 10.6412 0.719047 10.2337 0.436982C9.82618 0.154917 9.34273 0.00305304 8.84713 0.0014363C8.55467 0.00142224 8.26466 0.0548606 7.99141 0.159118L1.85331 2.49206C1.54614 2.60903 1.26544 2.78619 1.0277 3.01316C0.789955 3.24012 0.599964 3.5123 0.468885 3.81372C0.331964 4.12536 0.257784 4.46093 0.25058 4.80125C0.243377 5.14157 0.303292 5.47997 0.426904 5.79713L1.46198 8.43328C1.63811 8.89663 1.9506 9.29568 2.35822 9.57776C2.76583 9.85983 3.24939 10.0117 3.74509 10.0133C4.11183 10.0136 4.47374 9.92956 4.80284 9.7677L4.93409 9.70361L7.46779 11.6228C7.67093 11.7767 7.91626 11.8648 8.17089 11.8754C8.42552 11.8859 8.67728 11.8184 8.89245 11.6818C9.10762 11.5452 9.2759 11.3462 9.37475 11.1113C9.47361 10.8764 9.4983 10.6169 9.44553 10.3676ZM7.47062 7.07419L8.22259 10.6264L5.07629 8.24319L4.25437 8.64445C4.0959 8.7224 3.92168 8.76305 3.74507 8.76326C3.5009 8.76025 3.26334 8.68351 3.06355 8.54309C2.86377 8.40268 2.7111 8.20516 2.62556 7.97644L1.59048 5.34031C1.46216 5.02375 1.46451 4.66923 1.59702 4.35439C1.72952 4.03955 1.98138 3.79004 2.29745 3.6605L8.43552 1.32756C8.56695 1.27735 8.70644 1.25156 8.84713 1.25144C9.09118 1.25459 9.32859 1.3314 9.52824 1.47178C9.7279 1.61217 9.88049 1.80959 9.96603 2.03818L10.7824 4.11724C10.903 4.41693 10.9074 4.75083 10.7949 5.05363C10.6823 5.35643 10.4608 5.60634 10.1737 5.75447L7.47062 7.07419Z" fill="#414141"/>
</svg>
