<svg width="14" height="15" viewBox="0 0 14 15" fill="none" xmlns="http://www.w3.org/2000/svg">
<g id="Page-1">
<g id="Dribbble-Light-Preview">
<g id="icons">
<path id="profile_round-[#1342]" fill-rule="evenodd" clip-rule="evenodd" d="M11.5942 13.1H2.40671C1.91251 13.1 1.54711 12.6121 1.73401 12.1634C2.59921 10.0886 4.63201 8.89999 7.00011 8.89999C9.36891 8.89999 11.4017 10.0886 12.2669 12.1634C12.4538 12.6121 12.0884 13.1 11.5942 13.1ZM4.14201 4.69999C4.14201 3.15579 5.42441 1.89999 7.00011 1.89999C8.57651 1.89999 9.85821 3.15579 9.85821 4.69999C9.85821 6.24419 8.57651 7.49999 7.00011 7.49999C5.42441 7.49999 4.14201 6.24419 4.14201 4.69999ZM13.9693 12.8452C13.4499 10.4939 11.8245 8.75857 9.68601 7.97107C10.8193 7.07717 11.4801 5.63165 11.2372 4.04895C10.9558 2.21285 9.39621 0.743584 7.51461 0.529384C4.91621 0.233284 2.71261 2.21429 2.71261 4.69999C2.71261 6.02299 3.33841 7.20177 4.31491 7.97107C2.17501 8.75857 0.55101 10.4939 0.0309098 12.8452C-0.15809 13.6999 0.545411 14.5 1.43791 14.5H12.5623C13.4555 14.5 14.1583 13.6999 13.9693 12.8452Z" fill="#CECECE"/>
</g>
</g>
</g>
</svg>
