<svg width="14" height="15" viewBox="0 0 14 15" fill="none" xmlns="http://www.w3.org/2000/svg">
<g id="phone-alt" clip-path="url(#clip0_316_687)">
<path id="Vector" d="M12.6875 14.5002C5.68477 14.5002 0 8.82638 0 1.81271C-3.33104e-05 1.6643 0.0502374 1.52027 0.142607 1.40411C0.234977 1.28795 0.363992 1.20653 0.508594 1.17314L3.35234 0.51689M12.6875 14.5002L3.4637 1.00433C3.5 0.996211 3.53801 1.00094 3.57122 1.01773C3.60428 1.03444 3.63054 1.06206 3.64557 1.09589L4.9572 4.15636C4.95721 4.15638 4.95722 4.15641 4.95723 4.15643C4.97043 4.1873 4.97323 4.22163 4.9652 4.25424C4.95716 4.28687 4.93871 4.31599 4.91263 4.33719L4.91144 4.33817L3.25441 5.69442L2.95242 5.94159L3.11884 6.29458C4.17192 8.52809 5.96939 10.3256 8.2029 11.3786L8.55588 11.5451L8.80306 11.2431L10.1593 9.58604L10.1597 9.58557C10.1811 9.55934 10.2105 9.54078 10.2433 9.53268C10.2761 9.52461 10.3105 9.52735 10.3416 9.54048C10.3417 9.54053 10.3418 9.54059 10.342 9.54065L13.4011 10.8517C13.4013 10.8518 13.4016 10.8519 13.4019 10.852C13.4365 10.8673 13.4648 10.8941 13.482 10.9279C13.4991 10.9617 13.504 11.0003 13.496 11.0372C13.4959 11.0376 13.4958 11.0379 13.4958 11.0382L12.8402 13.8791C12.8402 13.8791 12.8402 13.8792 12.8401 13.8792C12.8322 13.9136 12.8128 13.9443 12.7851 13.9663C12.7575 13.9883 12.7232 14.0002 12.6878 14.0002H12.6875C5.96063 14.0002 0.5 8.54996 0.5 1.81271V1.8126C0.499992 1.77726 0.511961 1.74297 0.533954 1.71531C0.555932 1.68767 0.586623 1.6683 0.621024 1.66034L0.508596 1.17315L0.621094 1.66032L3.46316 1.00445L3.35234 0.51689M12.6875 14.5002C12.836 14.5003 12.9801 14.4501 13.0963 14.3577C13.2125 14.2653 13.2939 14.1363 13.3273 13.9916L12.6875 14.5002ZM3.35234 0.51689C3.50233 0.482799 3.65951 0.502111 3.79678 0.571495C3.93405 0.640879 4.0428 0.755986 4.1043 0.896968M3.35234 0.51689L4.1043 0.896968M4.1043 0.896968L5.4168 3.95947C5.47283 4.09025 5.48472 4.23573 5.45068 4.37388C5.41663 4.51202 5.33851 4.63532 5.22813 4.72509L4.1043 0.896968Z" stroke="#CECECE"/>
</g>
<defs>
<clipPath id="clip0_316_687">
<rect width="14" height="14" fill="white" transform="translate(0 0.5)"/>
</clipPath>
</defs>
</svg>
