<svg width="14" height="14" viewBox="0 0 14 14" fill="none" xmlns="http://www.w3.org/2000/svg">
<g id="phone-alt" clip-path="url(#clip0_445_1058)">
<path id="Vector" d="M12.6875 14.0002C5.68477 14.0002 0 8.32638 0 1.31271C-3.33104e-05 1.1643 0.0502374 1.02027 0.142607 0.904108C0.234977 0.78795 0.363992 0.706531 0.508594 0.67314L3.35234 0.0168895M12.6875 14.0002L3.4637 0.504334C3.5 0.496211 3.53801 0.500942 3.57122 0.51773C3.60428 0.53444 3.63054 0.562058 3.64557 0.595892L4.9572 3.65636C4.95721 3.65638 4.95722 3.65641 4.95723 3.65643C4.97043 3.6873 4.97323 3.72163 4.9652 3.75424C4.95716 3.78687 4.93871 3.81599 4.91263 3.83719L4.91144 3.83817L3.25441 5.19442L2.95242 5.44159L3.11884 5.79458C4.17192 8.02809 5.96939 9.82555 8.2029 10.8786L8.55588 11.0451L8.80306 10.7431L10.1593 9.08604L10.1597 9.08557C10.1811 9.05934 10.2105 9.04078 10.2433 9.03268C10.2761 9.02461 10.3105 9.02735 10.3416 9.04048C10.3417 9.04053 10.3418 9.04059 10.342 9.04065L13.4011 10.3517C13.4013 10.3518 13.4016 10.3519 13.4019 10.352C13.4365 10.3673 13.4648 10.3941 13.482 10.4279C13.4991 10.4617 13.504 10.5003 13.496 10.5372C13.4959 10.5376 13.4958 10.5379 13.4958 10.5382L12.8402 13.3791C12.8402 13.3791 12.8402 13.3792 12.8401 13.3792C12.8322 13.4136 12.8128 13.4443 12.7851 13.4663C12.7575 13.4883 12.7232 13.5002 12.6878 13.5002H12.6875C5.96063 13.5002 0.5 8.04996 0.5 1.31271V1.3126C0.499992 1.27726 0.511961 1.24297 0.533954 1.21531C0.555932 1.18767 0.586623 1.1683 0.621024 1.16034L0.508596 0.673151L0.621094 1.16032L3.46316 0.504454L3.35234 0.0168895M12.6875 14.0002C12.836 14.0003 12.9801 13.9501 13.0963 13.8577C13.2125 13.7653 13.2939 13.6363 13.3273 13.4916L12.6875 14.0002ZM3.35234 0.0168895C3.50233 -0.017201 3.65951 0.00211073 3.79678 0.0714946C3.93405 0.140879 4.0428 0.255986 4.1043 0.396968M3.35234 0.0168895L4.1043 0.396968M4.1043 0.396968L5.4168 3.45947C5.47283 3.59025 5.48472 3.73573 5.45068 3.87388C5.41663 4.01202 5.33851 4.13532 5.22813 4.22509L4.1043 0.396968Z" stroke="#CECECE"/>
</g>
<defs>
<clipPath id="clip0_445_1058">
<rect width="14" height="14" fill="white"/>
</clipPath>
</defs>
</svg>
