<svg width="30" height="31" viewBox="0 0 30 31" fill="none" xmlns="http://www.w3.org/2000/svg">
<g id="process">
<path id="Vector" d="M8.73963 18.3174C8.57547 18.3174 8.4129 18.3497 8.26123 18.4125C8.10955 18.4753 7.97173 18.5673 7.85565 18.6834C7.73957 18.7995 7.6475 18.9373 7.58469 19.089C7.52189 19.2407 7.48959 19.4032 7.48963 19.5674V21.7953C5.87844 19.9731 4.98926 17.6247 4.98963 15.1924C4.9894 14.8248 5.01141 14.4575 5.05554 14.0925C5.07578 13.9293 5.06361 13.7638 5.01974 13.6053C4.97586 13.4468 4.90115 13.2985 4.79986 13.1689C4.69858 13.0394 4.57273 12.9311 4.42952 12.8503C4.2863 12.7694 4.12855 12.7176 3.96529 12.6979C3.80203 12.6781 3.63648 12.6908 3.47812 12.7351C3.31976 12.7795 3.17171 12.8546 3.04245 12.9563C2.91319 13.058 2.80526 13.1841 2.72485 13.3276C2.64444 13.471 2.59313 13.6289 2.57386 13.7923C2.51724 14.2568 2.48911 14.7244 2.48963 15.1924C2.49133 18.1751 3.56333 21.0582 5.51072 23.3174H3.73963C3.40811 23.3174 3.09017 23.4491 2.85575 23.6835C2.62133 23.9179 2.48963 24.2359 2.48963 24.5674C2.48963 24.8989 2.62133 25.2169 2.85575 25.4513C3.09017 25.6857 3.40811 25.8174 3.73963 25.8174H8.73963C8.93513 25.8149 9.12721 25.7658 9.29988 25.6741C9.47255 25.5824 9.6208 25.4507 9.73229 25.2901C9.74687 25.2709 9.76548 25.2566 9.77906 25.2364C9.78738 25.2239 9.78761 25.2092 9.79538 25.1966C9.85495 25.0959 9.89959 24.9872 9.92788 24.8737C9.94639 24.8099 9.95953 24.7448 9.96717 24.6788C9.97076 24.6402 9.98967 24.607 9.98967 24.5674V19.5674C9.98972 19.4033 9.95742 19.2407 9.89461 19.089C9.83181 18.9373 9.73973 18.7995 9.62365 18.6834C9.50756 18.5673 9.36974 18.4753 9.21806 18.4125C9.06637 18.3497 8.9038 18.3174 8.73963 18.3174ZM10.6146 7.6924H8.38654C10.2088 6.08128 12.5573 5.19212 14.9896 5.1924C15.3571 5.19152 15.7242 5.21353 16.0889 5.25832C16.2519 5.27812 16.4172 5.26561 16.5754 5.22152C16.7336 5.17742 16.8816 5.10259 17.0109 5.00131C17.1401 4.90003 17.2482 4.77428 17.3289 4.63123C17.4096 4.48819 17.4613 4.33065 17.4811 4.16762C17.5009 4.00459 17.4884 3.83926 17.4443 3.68106C17.4002 3.52287 17.3253 3.37491 17.2241 3.24563C17.1228 3.11635 16.997 3.00828 16.854 2.9276C16.7109 2.84692 16.5534 2.79521 16.3904 2.77541C15.9256 2.71934 15.4578 2.69162 14.9896 2.6924C12.007 2.69402 9.1239 3.76594 6.86463 5.71326V3.9424C6.86463 3.61088 6.73293 3.29294 6.49851 3.05852C6.26409 2.82409 5.94615 2.6924 5.61463 2.6924C5.28311 2.6924 4.96517 2.82409 4.73075 3.05852C4.49633 3.29294 4.36463 3.61088 4.36463 3.9424V8.9424C4.37249 9.02502 4.38896 9.10659 4.41377 9.18579L4.41407 9.18731C4.44442 9.34113 4.50435 9.48759 4.59053 9.61856L4.60481 9.63969C4.6874 9.75982 4.79092 9.86412 4.91043 9.94761C4.92409 9.95761 4.93088 9.97294 4.94507 9.98247C4.96293 9.9943 4.98314 9.99805 5.00138 10.0089C5.07227 10.0515 5.14739 10.0867 5.22553 10.1139C5.33114 10.1506 5.44124 10.1728 5.55283 10.1799C5.57449 10.1811 5.59273 10.1924 5.61463 10.1924H10.6146C10.9462 10.1924 11.2641 10.0607 11.4985 9.82632C11.7329 9.5919 11.8646 9.27396 11.8646 8.94244C11.8646 8.61092 11.7329 8.29297 11.4985 8.05855C11.2641 7.82413 10.9462 7.6924 10.6146 7.6924ZM25.5652 21.1975C25.5349 21.0436 25.4749 20.8971 25.3886 20.7661L25.3745 20.7452C25.2919 20.625 25.1883 20.5206 25.0687 20.4371C25.055 20.4272 25.0483 20.4118 25.0342 20.4023C25.0207 20.3934 25.0047 20.3931 24.9909 20.3847C24.8324 20.2965 24.6586 20.2391 24.4788 20.2154C24.4392 20.2116 24.4051 20.1923 24.3646 20.1923H19.3646C19.0331 20.1923 18.7152 20.324 18.4807 20.5585C18.2463 20.7929 18.1146 21.1108 18.1146 21.4423C18.1146 21.7739 18.2463 22.0918 18.4807 22.3262C18.7152 22.5606 19.0331 22.6923 19.3646 22.6923H21.5926C19.7704 24.3035 17.422 25.1926 14.9896 25.1923C14.6222 25.1928 14.255 25.1704 13.8904 25.1252C13.5611 25.0852 13.2295 25.1777 12.9684 25.3822C12.7073 25.5868 12.5382 25.8866 12.4982 26.2159C12.4582 26.5452 12.5506 26.8768 12.7552 27.1379C12.9597 27.399 13.2596 27.5681 13.5889 27.6081C14.0537 27.6642 14.5214 27.6923 14.9896 27.6923C17.9723 27.6907 20.8554 26.6188 23.1146 24.6715V26.4424C23.1146 26.7739 23.2463 27.0919 23.4807 27.3263C23.7152 27.5607 24.0331 27.6924 24.3646 27.6924C24.6962 27.6924 25.0141 27.5607 25.2485 27.3263C25.4829 27.0919 25.6146 26.7739 25.6146 26.4424V21.4424C25.6068 21.3598 25.5903 21.2782 25.5655 21.199L25.5652 21.1975ZM26.2396 7.0674C26.5712 7.0674 26.8891 6.9357 27.1235 6.70128C27.3579 6.46686 27.4896 6.14892 27.4896 5.8174C27.4896 5.48588 27.3579 5.16794 27.1235 4.93352C26.8891 4.6991 26.5712 4.5674 26.2396 4.5674H21.2396C21.1583 4.57524 21.0779 4.59145 20.9998 4.61577L20.9915 4.61745C20.8397 4.64782 20.6951 4.70702 20.5656 4.79186L20.5412 4.80841C20.4216 4.89088 20.3177 4.99408 20.2345 5.11314C20.2247 5.12664 20.2095 5.13327 20.2002 5.14724C20.1913 5.16066 20.191 5.17654 20.1826 5.19019C20.0934 5.34968 20.0355 5.52477 20.0121 5.70601C20.0086 5.74462 19.9896 5.77789 19.9896 5.8174V10.8174C19.9896 11.1489 20.1213 11.4669 20.3557 11.7013C20.5902 11.9357 20.9081 12.0674 21.2396 12.0674C21.5711 12.0674 21.8891 11.9357 22.1235 11.7013C22.3579 11.4669 22.4896 11.1489 22.4896 10.8174V8.5888C24.1007 10.4113 24.9898 12.7599 24.9896 15.1923C24.9899 15.56 24.9678 15.9272 24.9237 16.2922C24.8841 16.6212 24.9766 16.9525 25.181 17.2134C25.3854 17.4743 25.6849 17.6435 26.0138 17.6838C26.0645 17.6897 26.1154 17.6925 26.1664 17.6923C26.4716 17.6919 26.7661 17.5799 26.9944 17.3772C27.2226 17.1746 27.3688 16.8955 27.4054 16.5925C27.462 16.1279 27.4902 15.6604 27.4896 15.1924C27.4879 12.2097 26.4159 9.3266 24.4684 7.0674H26.2396Z" fill="#0091FF"/>
</g>
</svg>
