<svg width="20" height="21" viewBox="0 0 20 21" fill="none" xmlns="http://www.w3.org/2000/svg">
<g id="Star">
<path id="Vector" d="M16.309 18.8847C15.6426 19.3594 11.3664 16.3504 10.5475 16.3438C9.72849 16.3372 5.40423 19.277 4.74558 18.7917C4.08692 18.3063 5.63539 13.3212 5.38862 12.5425C5.14185 11.7639 1.00164 8.57134 1.26099 7.79671C1.52039 7.02208 6.75351 6.95013 7.41994 6.47544C8.08637 6.00081 9.85188 1.08793 10.6709 1.09449C11.4898 1.1011 13.1756 6.04175 13.8342 6.5271C14.4929 7.01239 19.7242 7.1686 19.9711 7.94728C20.2178 8.72595 16.0265 11.8514 15.7671 12.6261C15.5078 13.4007 16.9754 18.41 16.309 18.8847Z" fill="url(#paint0_linear_165_613)"/>
</g>
<defs>
<linearGradient id="paint0_linear_165_613" x1="1.24932" y1="10.015" x2="19.9815" y2="10.015" gradientUnits="userSpaceOnUse">
<stop stop-color="#FCD635"/>
<stop offset="1" stop-color="#F7A928"/>
</linearGradient>
</defs>
</svg>
