<svg width="30" height="31" viewBox="0 0 30 31" fill="none" xmlns="http://www.w3.org/2000/svg">
<g id="Star">
<path id="Vector" d="M19.0132 10.4929L18.8423 10.1466L16.0153 4.41926L19.0132 10.4929ZM19.0132 10.4929C18.9173 10.4017 18.8379 10.2941 18.7788 10.1749C18.7788 10.1748 18.7788 10.1748 18.7788 10.1748C18.7786 10.1746 18.7785 10.1743 18.7784 10.1741L15.9516 4.44694L15.9516 4.44694L15.9493 4.44233C15.9492 4.44217 15.949 4.44179 15.9487 4.4412C15.9407 4.424 15.849 4.22735 15.6442 4.07136C15.4108 3.89353 15.1628 3.85645 14.999 3.85645H14.6121C14.7338 3.81272 14.8648 3.78955 15.0011 3.78955C15.4379 3.78955 15.8215 4.02782 16.015 4.41871L19.0132 10.4929ZM15.4945 23.4869L15.1507 23.3061C15.2817 23.3236 15.4091 23.3639 15.5269 23.4256C15.5269 23.4256 15.5269 23.4256 15.5269 23.4257L21.18 26.3991L21.5288 26.5825C21.4 26.5653 21.2712 26.5252 21.1483 26.4607C21.1482 26.4607 21.1482 26.4606 21.1481 26.4606L15.4945 23.4869ZM14.4734 23.426C14.6137 23.3524 14.7677 23.3091 14.9253 23.2986L14.5672 23.485L8.85586 26.4581L8.85585 26.458L8.84816 26.4621C8.80361 26.4858 8.75766 26.5063 8.71066 26.5237L9.7214 25.9636L9.70549 25.9334L14.473 23.4262C14.4731 23.4261 14.4732 23.4261 14.4733 23.426C14.4734 23.426 14.4734 23.426 14.4734 23.426ZM22.7201 25.2798L21.6403 18.9849C21.6134 18.8275 21.6202 18.6664 21.6597 18.5122L21.7268 18.9135L22.7892 25.2652L22.7892 25.2652L22.7905 25.2724C22.8138 25.4058 22.8126 25.5416 22.7876 25.6734L22.7201 25.2798ZM22.3255 26.2556L22.6691 26.0039C22.5893 26.1491 22.4781 26.2753 22.3429 26.3729L22.3407 26.3745C22.2077 26.4711 22.0562 26.5373 21.8968 26.5696L22.2365 26.3207L22.3255 26.2556ZM25.9511 11.7124L19.6314 10.7939C19.6314 10.7939 19.6313 10.7939 19.6313 10.7939C19.4761 10.7711 19.3275 10.7165 19.1949 10.6338L19.591 10.693L25.9582 11.6458L25.9582 11.6458L25.9667 11.647C26.0975 11.6654 26.2235 11.7068 26.3389 11.7687L25.9511 11.7124ZM14.2908 4.03718L14.1047 4.40891L11.2216 10.1699L11.2216 10.1699L11.219 10.1751C11.1502 10.3148 11.0533 10.4384 10.9348 10.5386L11.1114 10.1845L13.9852 4.42242L13.9868 4.41926C14.062 4.26712 14.166 4.13808 14.2908 4.03718ZM10.3604 10.7278L10.7362 10.6732C10.622 10.734 10.4978 10.7749 10.369 10.7938C10.3688 10.7939 10.3687 10.7939 10.3686 10.7939L4.41143 11.6594L4.3516 11.6011L10.3604 10.7278ZM3.85453 11.688L3.79497 11.749L3.68725 11.7646L3.44506 12.0356L3.13859 12.3786C3.20502 12.1921 3.31986 12.0264 3.4716 11.8987C3.5846 11.8036 3.71484 11.7322 3.85453 11.688ZM3.4093 13.5707C3.37527 13.5378 3.34349 13.5029 3.3141 13.4663L4.14956 14.2472L4.17458 14.2216L8.0321 17.9823C8.03216 17.9824 8.03221 17.9824 8.03226 17.9825C8.14673 18.0944 8.2344 18.2267 8.29239 18.3701L8.00755 18.0902L3.41548 13.5767L3.4155 13.5767L3.4093 13.5707ZM8.35707 18.5941C8.37991 18.7212 8.38106 18.8527 8.35883 18.9833C8.3588 18.9834 8.35878 18.9836 8.35875 18.9837L7.34217 24.9166L7.2656 24.9568L8.29218 18.9724L8.35707 18.5941ZM7.236 25.5362L7.21854 25.6381L7.40136 25.9521L7.63576 26.3546C7.47624 26.2337 7.35207 26.072 7.27654 25.8862C7.22094 25.7495 7.19328 25.6037 7.19448 25.4573L7.236 25.5362ZM26.7596 12.3969L26.6305 11.9941C26.741 12.1133 26.8245 12.2556 26.8746 12.4114L26.8746 12.4114L26.8766 12.4175C26.9288 12.5763 26.9447 12.7442 26.9237 12.909L26.7937 12.5034L26.7596 12.3969ZM26.5394 13.5246L26.825 13.2462C26.7678 13.3672 26.689 13.4776 26.5919 13.5715L26.5896 13.5738L22.0151 18.0324L21.7345 18.306C21.7917 18.1858 21.8698 18.0762 21.9656 17.9826C21.9657 17.9825 21.9658 17.9824 21.9659 17.9823L26.5394 13.5246Z" fill="#00CC99" stroke="#00CC99" stroke-width="2"/>
</g>
</svg>
